<svg xmlns="http://www.w3.org/2000/svg">
  <symbol id="solar:bookmark-linear" viewBox="0 0 24 24" fill="none">
    <path d="M21 16.09V11.098C21 6.808 21 4.665 19.682 3.332C18.364 2 16.242 2 12 2C7.758 2 5.636 2 4.318 3.332C3 4.664 3 6.81 3 11.098V16.091C3 19.187 3 20.736 3.734 21.412C4.084 21.735 4.526 21.938 4.997 21.992C5.984 22.105 7.137 21.085 9.442 19.046C10.462 18.145 10.971 17.694 11.56 17.576C11.85 17.516 12.15 17.516 12.44 17.576C13.03 17.694 13.539 18.145 14.558 19.046C16.863 21.085 18.016 22.105 19.003 21.991C19.473 21.938 19.916 21.735 20.266 21.412C21 20.736 21 19.187 21 16.09Z" stroke="currentColor" stroke-width="1.5"></path>
    <path d="M15 6H9" stroke="currentColor" stroke-width="1.5" stroke-linecap="round"></path>
  </symbol>

  <symbol id="solar:alt-arrow-down-bold" viewBox="0 0 24 24" fill="none">
    <path d="M12.3698 15.835L18.7998 9.205C19.2008 8.79 18.9578 8 18.4298 8H5.56982C5.04182 8 4.79882 8.79 5.19982 9.205L11.6298 15.835C11.8428 16.055 12.1568 16.055 12.3698 15.835Z" fill="currentColor"></path>
  </symbol>

  <symbol id="solar:phone-rounded-linear" viewBox="0 0 24 24" fill="none">
    <path d="M10.0381 5.31598L10.6871 6.47898C11.2721 7.52898 11.0371 8.90498 10.1151 9.82798C10.1151 9.82798 8.99515 10.947 11.0251 12.976C13.0521 15.003 14.1721 13.886 14.1721 13.886C15.0951 12.963 16.4721 12.728 17.5211 13.313L18.6841 13.963C20.2691 14.847 20.4561 17.069 19.0631 18.463C18.2261 19.299 17.2001 19.951 16.0671 19.993C14.1591 20.066 10.9181 19.583 7.66715 16.333C4.41715 13.082 3.93415 9.84098 4.00715 7.93298C4.05015 6.79998 4.70115 5.77398 5.53715 4.93698C6.93115 3.54398 9.15315 3.73098 10.0371 5.31698L10.0381 5.31598Z" stroke="currentColor" stroke-width="1.5" stroke-linecap="round"></path>
  </symbol>

  <symbol id="solar:global-broken" viewBox="0 0 24 24" fill="none">
    <path d="M7 3.33801C8.51945 2.45874 10.2445 1.99712 12 2.00001C17.523 2.00001 22 6.47701 22 12C22 17.523 17.523 22 12 22C6.477 22 2 17.523 2 12C2 10.179 2.487 8.47001 3.338 7.00001" stroke="currentColor" stroke-width="1.5" stroke-linecap="round"></path>
    <path d="M14.828 19.071C14.457 20 14.016 20.736 13.531 21.239C13.045 21.741 12.525 22 12 22C11.475 22 10.955 21.741 10.47 21.239C9.984 20.736 9.543 19.999 9.172 19.071C8.8 18.142 8.505 17.041 8.304 15.827C8.09891 14.5617 7.99724 13.2818 8 12C8 10.687 8.103 9.386 8.304 8.173C8.505 6.96 8.8 5.858 9.172 4.929C9.543 4 9.984 3.264 10.469 2.761C10.955 2.26 11.475 2 12 2C12.525 2 13.045 2.259 13.53 2.761C14.016 3.264 14.457 4.001 14.828 4.929C15.2 5.858 15.495 6.959 15.695 8.173C15.897 9.386 16 10.687 16 12C16 13.313 15.896 14.614 15.695 15.827M2 12H10M22 12H14" stroke="currentColor" stroke-width="1.5" stroke-linecap="round"></path>
  </symbol>

  <symbol id="solar:user-broken" viewBox="0 0 24 24" fill="none">
    <path d="M12 10C14.2091 10 16 8.20914 16 6C16 3.79086 14.2091 2 12 2C9.79086 2 8 3.79086 8 6C8 8.20914 9.79086 10 12 10Z" stroke="currentColor" stroke-width="1.5"></path>
    <path d="M19.998 18C19.9993 17.836 20 17.6693 20 17.5C20 15.015 16.418 13 12 13C7.582 13 4 15.015 4 17.5C4 19.985 4 22 12 22C14.231 22 15.84 21.843 17 21.563" stroke="currentColor" stroke-width="1.5" stroke-linecap="round"></path>
  </symbol>

  <symbol id="solar:rocket-2-bold-duotone" viewBox="0 0 24 24" fill="none">
    <path fill-rule="evenodd" clip-rule="evenodd" d="M15.5018 14.367L20.5318 9.353C21.2558 8.631 21.6188 8.27 21.8088 7.81C21.9998 7.351 21.9998 6.84 21.9998 5.82V5.33C21.9998 3.76 21.9998 2.975 21.5098 2.487C21.0218 2 20.2348 2 18.6588 2H18.1698C17.1458 2 16.6328 2 16.1728 2.19C15.7128 2.38 15.3498 2.741 14.6258 3.464L9.59582 8.478C8.74982 9.322 8.22482 9.845 8.02182 10.351C7.95782 10.511 7.92482 10.668 7.92482 10.834C7.92482 11.524 8.48182 12.079 9.59582 13.19L9.74582 13.339L11.4998 11.559C11.62 11.4371 11.7836 11.368 11.9547 11.3668C12.1258 11.3655 12.2905 11.4324 12.4123 11.5525C12.5342 11.6726 12.6033 11.8363 12.6046 12.0074C12.6058 12.1785 12.539 12.3431 12.4188 12.465L10.6588 14.25L10.7778 14.367C11.8918 15.477 12.4478 16.033 13.1398 16.033C13.2918 16.033 13.4408 16.006 13.5868 15.952C14.1058 15.761 14.6348 15.232 15.5028 14.367M17.8658 8.479C17.2138 9.129 16.1558 9.129 15.5028 8.479C15.3474 8.3247 15.2241 8.14118 15.1399 7.939C15.0557 7.73683 15.0124 7.52 15.0124 7.301C15.0124 7.082 15.0557 6.86517 15.1399 6.663C15.2241 6.46082 15.3474 6.2773 15.5028 6.123C16.1558 5.473 17.2128 5.473 17.8658 6.123C18.5188 6.773 18.5188 7.828 17.8658 8.479ZM2.77382 12.481C2.9161 12.6235 2.99602 12.8166 2.99602 13.018C2.99602 13.2194 2.9161 13.4125 2.77382 13.555L2.61782 13.71C2.55431 13.7737 2.51865 13.86 2.51865 13.95C2.51865 14.04 2.55431 14.1263 2.61782 14.19C2.64943 14.2219 2.68705 14.2472 2.7285 14.2645C2.76995 14.2818 2.81441 14.2907 2.85932 14.2907C2.90423 14.2907 2.94869 14.2818 2.99014 14.2645C3.03159 14.2472 3.06921 14.2219 3.10082 14.19L4.81382 12.48C4.95857 12.3492 5.14808 12.2791 5.34311 12.2842C5.53813 12.2892 5.72374 12.3691 5.8615 12.5072C5.99926 12.6454 6.07861 12.8312 6.08314 13.0263C6.08767 13.2213 6.01702 13.4106 5.88582 13.555L4.17382 15.265C3.82506 15.6134 3.35227 15.8091 2.85932 15.8091C2.36637 15.8091 1.89358 15.6134 1.54482 15.265C1.37196 15.0925 1.23482 14.8876 1.14125 14.6621C1.04768 14.4365 0.999512 14.1947 0.999512 13.9505C0.999512 13.7063 1.04768 13.4645 1.14125 13.2389C1.23482 13.0134 1.37196 12.8085 1.54482 12.636L1.70082 12.481C1.84327 12.339 2.0362 12.2593 2.23732 12.2593C2.43844 12.2593 2.63136 12.339 2.77382 12.481ZM7.29682 16.696C7.58982 16.996 7.58482 17.476 7.28482 17.769L5.55482 19.461C5.40985 19.596 5.21785 19.669 5.01982 19.6643C4.82179 19.6597 4.63342 19.5778 4.49493 19.4362C4.35643 19.2946 4.2788 19.1044 4.27859 18.9063C4.27838 18.7082 4.35562 18.5179 4.49382 18.376L6.22382 16.684C6.36785 16.5436 6.56167 16.466 6.7628 16.4683C6.96393 16.4705 7.15596 16.5524 7.29682 16.696ZM11.4808 18.118C11.6231 18.2605 11.703 18.4536 11.703 18.655C11.703 18.8564 11.6231 19.0495 11.4808 19.192L9.76782 20.902C9.70431 20.9657 9.66865 21.052 9.66865 21.142C9.66865 21.232 9.70431 21.3183 9.76782 21.382C9.90182 21.515 10.1178 21.515 10.2518 21.382L10.4078 21.227C10.552 21.0943 10.7419 21.0224 10.9378 21.0265C11.1337 21.0306 11.3204 21.1102 11.4589 21.2489C11.5974 21.3875 11.6769 21.5743 11.6808 21.7702C11.6847 21.9662 11.6127 22.156 11.4798 22.3L11.3248 22.455C10.976 22.8037 10.503 22.9996 10.0098 22.9996C9.51662 22.9996 9.04362 22.8037 8.69482 22.455C8.52196 22.2825 8.38482 22.0776 8.29125 21.8521C8.19768 21.6265 8.14951 21.3847 8.14951 21.1405C8.14951 20.8963 8.19768 20.6545 8.29125 20.4289C8.38482 20.2034 8.52196 19.9985 8.69482 19.826L10.4078 18.116C10.5504 17.9742 10.7434 17.8946 10.9445 17.8948C11.1456 17.895 11.3385 17.9759 11.4808 18.118Z" fill="currentColor"></path>
    <path opacity="0.5" d="M10.846 5.40997L8.65799 7.58997C8.25599 7.99097 7.88799 8.35897 7.59599 8.69097C7.39816 8.91013 7.22013 9.14639 7.06399 9.39697L7.04199 9.37597L6.96199 9.29597C6.5809 8.92692 6.13334 8.63341 5.64299 8.43097L5.53699 8.38897L5.21199 8.25897C5.11059 8.2188 5.02075 8.15406 4.95058 8.07056C4.8804 7.98706 4.83208 7.88743 4.80997 7.78062C4.78786 7.67382 4.79264 7.56319 4.82389 7.45869C4.85514 7.35419 4.91187 7.2591 4.98899 7.18197C5.95199 6.22197 7.10899 5.06797 7.66799 4.83597C8.15297 4.6321 8.68427 4.56401 9.20499 4.63897C9.67499 4.70897 10.12 4.95097 10.846 5.40997ZM14.582 16.893C14.758 17.073 14.875 17.199 14.981 17.333C15.121 17.5116 15.2453 17.7006 15.354 17.9C15.477 18.123 15.572 18.362 15.762 18.839C15.917 19.227 16.432 19.33 16.73 19.032L16.803 18.96C17.766 18 18.923 16.846 19.156 16.29C19.3593 15.8059 19.4274 15.2757 19.353 14.756C19.283 14.288 19.041 13.844 18.581 13.12L16.386 15.309C15.975 15.719 15.597 16.095 15.256 16.389C15.0459 16.5756 14.8204 16.7442 14.582 16.893ZM7.68599 14.563C7.75959 14.4932 7.81846 14.4094 7.85915 14.3166C7.89983 14.2237 7.92149 14.1236 7.92285 14.0222C7.92422 13.9209 7.90525 13.8202 7.86708 13.7263C7.82891 13.6324 7.77231 13.547 7.70062 13.4753C7.62892 13.4036 7.54359 13.347 7.44966 13.3089C7.35573 13.2707 7.2551 13.2517 7.15372 13.2531C7.05234 13.2545 6.95225 13.2761 6.85938 13.3168C6.76651 13.3575 6.68273 13.4164 6.61299 13.49L4.46999 15.632C4.39947 15.7025 4.34353 15.7862 4.30537 15.8783C4.2672 15.9705 4.24756 16.0692 4.24756 16.169C4.24756 16.2687 4.2672 16.3674 4.30537 16.4596C4.34353 16.5517 4.39947 16.6354 4.46999 16.706C4.54051 16.7765 4.62423 16.8324 4.71637 16.8706C4.80851 16.9088 4.90726 16.9284 5.00699 16.9284C5.10672 16.9284 5.20547 16.9088 5.29761 16.8706C5.38975 16.8324 5.47347 16.7765 5.54399 16.706L7.68599 14.563ZM10.495 17.369C10.5686 17.2992 10.6275 17.2154 10.6681 17.1226C10.7088 17.0297 10.7305 16.9296 10.7319 16.8282C10.7332 16.7269 10.7143 16.6262 10.6761 16.5323C10.6379 16.4384 10.5813 16.353 10.5096 16.2813C10.4379 16.2096 10.3526 16.153 10.2587 16.1149C10.1647 16.0767 10.0641 16.0577 9.96272 16.0591C9.86134 16.0605 9.76125 16.0821 9.66838 16.1228C9.57551 16.1635 9.49173 16.2224 9.42199 16.296L7.29399 18.423C7.16053 18.5672 7.0881 18.7574 7.09189 18.9539C7.09569 19.1503 7.17542 19.3377 7.31435 19.4766C7.45328 19.6155 7.64062 19.6953 7.83707 19.6991C8.03351 19.7029 8.22379 19.6304 8.36799 19.497L10.495 17.369Z" fill="currentColor"></path>
  </symbol>

  <symbol id="solar:rocket-2-line-duotone" viewBox="0 0 24 24" fill="none">
    <path d="M19.9861 8.89511L14.9001 13.9621L15.9591 15.0251L21.0461 9.96011L19.9861 8.89511ZM11.1791 13.9611L9.98414 12.7711L8.92514 13.8341L10.1201 15.0241L11.1791 13.9611ZM9.98414 9.07511L15.0701 4.01011L14.0121 2.94711L8.92514 8.01211L9.98414 9.07511ZM18.1261 2.75011H18.6211V1.25011H18.1261V2.75011ZM21.2501 5.36511V5.85811H22.7501V5.36511H21.2501ZM18.6211 2.75011C19.4391 2.75011 19.9761 2.75211 20.3751 2.80511C20.7531 2.85511 20.8911 2.94011 20.9761 3.02511L22.0341 1.96111C21.6241 1.55311 21.1171 1.39111 20.5741 1.31811C20.0531 1.24811 19.3961 1.25011 18.6211 1.25011V2.75011ZM22.7501 5.36511C22.7501 4.59311 22.7521 3.93911 22.6811 3.41911C22.6081 2.87711 22.4451 2.37011 22.0341 1.96111L20.9761 3.02411C21.0601 3.10811 21.1441 3.24411 21.1951 3.61911C21.2481 4.01611 21.2501 4.55111 21.2501 5.36511H22.7501ZM9.98414 12.7711C9.40614 12.1961 9.02614 11.8161 8.78314 11.4981C8.55214 11.1971 8.51514 11.0411 8.51514 10.9231H7.01514C7.01514 11.5031 7.25914 11.9761 7.59214 12.4101C7.91214 12.8271 8.37714 13.2881 8.92514 13.8341L9.98414 12.7711ZM10.1201 15.0241C10.6681 15.5701 11.1321 16.0341 11.5501 16.3521C11.9861 16.6831 12.4601 16.9251 13.0391 16.9251V15.4251C12.9181 15.4251 12.7601 15.3871 12.4581 15.1571C12.1381 14.9151 11.7581 14.5371 11.1791 13.9611L10.1201 15.0241ZM21.0461 9.96011C21.7351 9.27411 22.2351 8.79211 22.5001 8.15811L21.1151 7.58211C20.9931 7.87611 20.7621 8.12411 19.9861 8.89711L21.0461 9.96011ZM21.2501 5.85911C21.2501 6.95211 21.2371 7.28911 21.1151 7.58211L22.5001 8.15811C22.7631 7.52411 22.7501 6.82911 22.7501 5.85911H21.2501ZM15.0701 4.01011C15.8461 3.23711 16.0961 3.00811 16.3921 2.88511L15.8201 1.50011C15.1841 1.76211 14.7011 2.26111 14.0121 2.94711L15.0701 4.01011ZM18.1261 1.25011C17.1511 1.25011 16.4561 1.23711 15.8201 1.49911L16.3921 2.88511C16.6881 2.76311 17.0291 2.75011 18.1261 2.75011V1.25011ZM14.8991 13.9611C14.4541 14.4051 14.1221 14.7351 13.8371 14.9811C13.5521 15.2271 13.3671 15.3391 13.2321 15.3891L13.7491 16.7971C14.1381 16.6541 14.4841 16.4031 14.8171 16.1171C15.1511 15.8271 15.5261 15.4541 15.9571 15.0241L14.8991 13.9611ZM13.2321 15.3891C13.1708 15.4137 13.1052 15.426 13.0391 15.4251V16.9251C13.2858 16.9244 13.5225 16.8818 13.7491 16.7971L13.2321 15.3891ZM8.92514 8.01211C8.50414 8.43211 8.13714 8.79711 7.85114 9.12311C7.56614 9.44711 7.31714 9.78311 7.16714 10.1551L8.55814 10.7151C8.61414 10.5771 8.73214 10.3931 8.97814 10.1121C9.22314 9.83311 9.54914 9.50811 9.98414 9.07511L8.92514 8.01211ZM7.16714 10.1551C7.06637 10.3986 7.01472 10.6596 7.01514 10.9231H8.51514C8.51514 10.8581 8.52614 10.7931 8.55814 10.7151L7.16714 10.1551Z" fill="currentColor"></path>
    <path opacity="0.5" d="M7.70907 10.2831L8.23907 9.75212V9.75012L7.70907 10.2831ZM11.4381 6.79512C11.5209 6.8511 11.6141 6.88995 11.7122 6.90938C11.8103 6.92882 11.9112 6.92845 12.0092 6.9083C12.1071 6.88814 12.2 6.84861 12.2824 6.79203C12.3649 6.73544 12.4352 6.66295 12.4892 6.57881C12.5432 6.49466 12.5798 6.40057 12.5969 6.30206C12.614 6.20356 12.6113 6.10262 12.5888 6.0052C12.5664 5.90777 12.5246 5.81582 12.4661 5.73475C12.4076 5.65368 12.3335 5.58512 12.2481 5.53312L11.4381 6.79512ZM13.7341 16.3391L13.2041 16.8691L13.2401 16.9031L13.7341 16.3391ZM18.4471 11.7071C18.3364 11.546 18.1672 11.4345 17.9755 11.3963C17.7838 11.3581 17.5847 11.3962 17.4207 11.5026C17.2568 11.6089 17.1408 11.7751 17.0975 11.9658C17.0542 12.1564 17.0871 12.3564 17.1891 12.5231L18.4471 11.7071ZM14.1881 16.7371L14.7181 16.2061L14.7011 16.1891L14.6831 16.1731L14.1881 16.7371ZM14.0201 15.5641C13.9509 15.4925 13.8681 15.4354 13.7765 15.3962C13.685 15.3569 13.5866 15.3363 13.487 15.3354C13.3874 15.3346 13.2887 15.3536 13.1965 15.3914C13.1044 15.4292 13.0207 15.4849 12.9503 15.5553C12.8799 15.6258 12.8242 15.7095 12.7866 15.8017C12.7489 15.8939 12.73 15.9927 12.7309 16.0923C12.7318 16.1919 12.7525 16.2903 12.7919 16.3818C12.8312 16.4732 12.8884 16.556 12.9601 16.6251L14.0201 15.5641ZM7.33107 10.9671C7.47259 11.1037 7.66208 11.1792 7.85872 11.1774C8.05537 11.1756 8.24344 11.0966 8.38244 10.9575C8.52143 10.8184 8.60021 10.6302 8.60183 10.4336C8.60345 10.2369 8.52776 10.0475 8.39107 9.90612L7.33107 10.9671ZM12.2481 5.53312L11.7001 5.18012L10.8901 6.44212L11.4371 6.79412L12.2481 5.53312ZM11.7001 5.18012C11.1611 4.83312 10.7211 4.55012 10.3411 4.34512C9.95207 4.13612 9.58107 3.98512 9.16907 3.92312L8.94907 5.40712C9.12507 5.43312 9.32307 5.50112 9.63007 5.66712C9.94707 5.83712 10.3301 6.08312 10.8901 6.44212L11.7001 5.18012ZM5.32507 7.76612C5.81507 7.27812 6.33907 6.75612 6.80907 6.32812C7.04407 6.11412 7.25707 5.93112 7.43907 5.79112C7.63107 5.64312 7.74607 5.57812 7.79207 5.55812L7.21807 4.17212C6.96948 4.2861 6.73603 4.43054 6.52307 4.60212C6.29607 4.77812 6.04907 4.99212 5.79907 5.21912C5.2777 5.70261 4.76691 6.1974 4.26707 6.70312L5.32507 7.76612ZM9.17007 3.92412C8.50895 3.82909 7.83443 3.91478 7.21807 4.17212L7.79207 5.55812C8.15782 5.40455 8.55828 5.35272 8.95107 5.40812L9.17007 3.92412ZM4.74607 9.02012L5.07507 9.15012L5.62707 7.75612L5.29707 7.62612L4.74607 9.02012ZM6.34407 9.98212L7.18007 10.8141L8.23807 9.75012L7.40207 8.91812L6.34407 9.98212ZM5.07507 9.15012L5.17307 9.18912L5.74307 7.80112L5.62707 7.75612L5.07507 9.15012ZM7.40207 8.91812L7.31307 8.83012L6.26907 9.90712L6.34407 9.98112L7.40207 8.91812ZM5.17207 9.18812C5.58107 9.35712 5.95307 9.60012 6.26907 9.90712L7.31307 8.83012C6.8594 8.39108 6.32668 8.04193 5.74307 7.80112L5.17207 9.18812ZM4.26707 6.70312C4.10076 6.86882 3.97832 7.07233 3.9108 7.29719C3.84329 7.52204 3.83282 7.76017 3.88036 7.99008C3.92789 8.21999 4.03191 8.43445 4.18305 8.6141C4.33419 8.79376 4.52769 8.93295 4.74607 9.01912L5.29807 7.62412C5.31102 7.62964 5.32242 7.63826 5.33126 7.64921C5.3401 7.66017 5.34612 7.67312 5.34879 7.68694C5.35145 7.70077 5.35068 7.71503 5.34655 7.72849C5.34241 7.74194 5.33504 7.75418 5.32507 7.76412L4.26707 6.70312ZM17.1901 12.5221L17.5431 13.0671L18.8021 12.2511L18.4481 11.7051L17.1901 12.5221ZM16.2151 18.6001L16.1421 18.6721L17.2001 19.7351L17.2731 19.6621L16.2151 18.6001ZM17.5431 13.0671C17.9031 13.6231 18.1511 14.0051 18.3221 14.3201C18.4881 14.6251 18.5551 14.8221 18.5821 14.9951L20.0651 14.7751C20.0031 14.3621 19.8501 13.9921 19.6401 13.6051C19.4351 13.2251 19.1501 12.7881 18.8021 12.2511L17.5431 13.0671ZM17.2731 19.6621C17.7808 19.1643 18.2775 18.6555 18.7631 18.1361C18.9931 17.8871 19.2061 17.6421 19.3831 17.4161C19.5491 17.2001 19.7171 16.9581 19.8161 16.7221L18.4321 16.1441C18.4121 16.1891 18.3471 16.3041 18.1971 16.4951C18.0571 16.6751 17.8741 16.8881 17.6591 17.1221C17.1884 17.6248 16.7069 18.1182 16.2151 18.6001L17.2731 19.6621ZM18.5811 14.9951C18.6371 15.3721 18.5891 15.7701 18.4321 16.1441L19.8161 16.7221C20.075 16.1076 20.1611 15.435 20.0651 14.7751L18.5811 14.9951ZM14.6841 16.1711L14.2291 15.7731L13.2411 16.9011L13.6961 17.2991L14.6841 16.1711ZM16.3881 18.7311C16.2021 18.2651 16.0881 17.9741 15.9361 17.6991L14.6221 18.4211C14.7191 18.5971 14.7961 18.7881 14.9951 19.2871L16.3881 18.7311ZM13.6611 17.2671C14.0411 17.6461 14.1871 17.7931 14.3111 17.9511L15.4911 17.0251C15.2981 16.7781 15.0751 16.5581 14.7191 16.2041L13.6611 17.2671ZM15.9371 17.6991C15.8072 17.4628 15.6573 17.2374 15.4911 17.0251L14.3121 17.9511C14.4287 18.0991 14.5321 18.2558 14.6221 18.4211L15.9371 17.6991ZM16.1421 18.6721C16.1591 18.6554 16.1798 18.6429 16.2026 18.6358C16.2254 18.6286 16.2496 18.627 16.2731 18.6311C16.3111 18.6381 16.3631 18.6691 16.3881 18.7311L14.9951 19.2871C15.3551 20.1911 16.5251 20.4071 17.2001 19.7351L16.1421 18.6721ZM14.2651 15.8061L14.0201 15.5621L12.9601 16.6231L13.2051 16.8681L14.2651 15.8061ZM7.17907 10.8121L7.33207 10.9651L8.39207 9.90412L8.23907 9.75212L7.17907 10.8121Z" fill="currentColor"></path>
    <path d="M5.54807 13L3.85607 14.69C3.65184 14.893 3.37555 15.007 3.08757 15.007C2.79958 15.007 2.5233 14.893 2.31907 14.69C2.21808 14.5892 2.13796 14.4695 2.08329 14.3377C2.02863 14.2059 2.00049 14.0647 2.00049 13.922C2.00049 13.7793 2.02863 13.6381 2.08329 13.5063C2.13796 13.3745 2.21808 13.2548 2.31907 13.154L2.47207 13M11.0761 18.57L9.38407 20.26C9.28323 20.3608 9.20324 20.4804 9.14866 20.6121C9.09408 20.7438 9.06599 20.8849 9.06599 21.0275C9.06599 21.1701 9.09408 21.3112 9.14866 21.4429C9.20324 21.5746 9.28323 21.6942 9.38407 21.795C9.58834 21.9983 9.86484 22.1125 10.1531 22.1125C10.4413 22.1125 10.7178 21.9983 10.9221 21.795L11.0761 21.642M6.93607 17.159L5.22607 18.831" stroke="currentColor" stroke-width="1.5" stroke-linecap="round"></path>
    <path opacity="0.5" d="M10.6329 17.1861C10.7696 17.0448 10.8453 16.8553 10.8437 16.6587C10.842 16.462 10.7633 16.2739 10.6243 16.1348C10.4853 15.9957 10.2972 15.9167 10.1006 15.9149C9.9039 15.9131 9.71442 15.9886 9.5729 16.1251L10.6329 17.1861ZM7.4699 18.2271C7.33742 18.3693 7.2653 18.5574 7.26873 18.7517C7.27215 18.946 7.35087 19.1314 7.48828 19.2688C7.62569 19.4062 7.81108 19.4849 8.00538 19.4883C8.19968 19.4917 8.38773 19.4196 8.5299 19.2871L7.4699 18.2271ZM7.8569 14.4131C7.93059 14.3445 7.98969 14.2617 8.03068 14.1697C8.07167 14.0777 8.09372 13.9784 8.09549 13.8777C8.09727 13.777 8.07874 13.6769 8.04102 13.5835C8.0033 13.4902 7.94716 13.4053 7.87594 13.3341C7.80472 13.2629 7.71989 13.2067 7.6265 13.169C7.53311 13.1313 7.43308 13.1128 7.33238 13.1146C7.23168 13.1163 7.13236 13.1384 7.04036 13.1794C6.94836 13.2204 6.86556 13.2795 6.7969 13.3531L7.8569 14.4131ZM4.6799 15.4701C4.60824 15.5393 4.55106 15.622 4.51171 15.7135C4.47236 15.805 4.45163 15.9034 4.45072 16.003C4.4498 16.1026 4.46873 16.2013 4.5064 16.2935C4.54407 16.3857 4.59972 16.4695 4.6701 16.5399C4.74049 16.6104 4.8242 16.6661 4.91636 16.7039C5.00851 16.7416 5.10726 16.7606 5.20684 16.7598C5.30643 16.759 5.40485 16.7384 5.49638 16.6991C5.5879 16.6598 5.67068 16.6027 5.7399 16.5311L4.6799 15.4701ZM9.5719 16.1261L7.4699 18.2271L8.5299 19.2871L10.6329 17.1861L9.5719 16.1261ZM6.7969 13.3531L4.6799 15.4701L5.7399 16.5311L7.8569 14.4131L6.7969 13.3531ZM12.3729 12.6451C12.4447 12.5761 12.502 12.4935 12.5415 12.4021C12.581 12.3107 12.6019 12.2123 12.603 12.1128C12.6041 12.0132 12.5854 11.9144 12.5479 11.8221C12.5104 11.7299 12.4549 11.646 12.3846 11.5755C12.3144 11.5049 12.2308 11.449 12.1387 11.4111C12.0466 11.3731 11.9479 11.3539 11.8484 11.3546C11.7488 11.3552 11.6503 11.3756 11.5587 11.4147C11.4672 11.4538 11.3843 11.5107 11.3149 11.5821L12.3729 12.6451ZM10.5809 14.4301L12.3729 12.6451L11.3149 11.5821L9.5229 13.3671L10.5809 14.4301ZM17.2889 8.01314C17.1119 8.18871 16.8727 8.28722 16.6234 8.28722C16.3741 8.28722 16.1349 8.18871 15.9579 8.01314L14.8989 9.07615C15.357 9.5317 15.9768 9.78741 16.6229 9.78741C17.269 9.78741 17.8888 9.5317 18.3469 9.07615L17.2889 8.01314ZM15.9579 8.01314C15.8713 7.92675 15.8025 7.82412 15.7557 7.71112C15.7088 7.59813 15.6846 7.47699 15.6846 7.35465C15.6846 7.2323 15.7088 7.11116 15.7557 6.99817C15.8025 6.88517 15.8713 6.78254 15.9579 6.69615L14.8989 5.63315C14.6723 5.85891 14.4925 6.1272 14.3698 6.42261C14.2471 6.71803 14.1839 7.03476 14.1839 7.35465C14.1839 7.67453 14.2471 7.99126 14.3698 8.28668C14.4925 8.58209 14.6723 8.85038 14.8989 9.07615L15.9579 8.01314ZM15.9579 6.69615C16.1349 6.52088 16.3738 6.42256 16.6229 6.42256C16.872 6.42256 17.1109 6.52088 17.2879 6.69615L18.3479 5.63315C17.8897 5.17729 17.2697 4.92139 16.6234 4.92139C15.9771 4.92139 15.3571 5.17729 14.8989 5.63315L15.9579 6.69615ZM17.2879 6.69615C17.3745 6.78254 17.4433 6.88517 17.4902 6.99817C17.537 7.11116 17.5612 7.2323 17.5612 7.35465C17.5612 7.47699 17.537 7.59813 17.4902 7.71112C17.4433 7.82412 17.3755 7.92675 17.2889 8.01314L18.3469 9.07615C18.5735 8.85038 18.7543 8.58209 18.877 8.28668C18.9997 7.99126 19.0629 7.67453 19.0629 7.35465C19.0629 7.03476 18.9997 6.71803 18.877 6.42261C18.7543 6.1272 18.5745 5.85891 18.3479 5.63315L17.2879 6.69615Z" fill="currentColor"></path>
  </symbol>

  <symbol id="solar:rocket-bold-duotone" viewBox="0 0 24 24" fill="none">
    <path fill-rule="evenodd" clip-rule="evenodd" d="M14.4472 16.377L20.2942 10.547C21.1362 9.708 21.5572 9.288 21.7782 8.755C21.9992 8.222 22.0002 7.627 22.0002 6.44V5.873C22.0002 4.047 22.0002 3.134 21.4312 2.567C20.8622 2 19.9472 2 18.1162 2H17.5462C16.3562 2 15.7612 2 15.2262 2.221C14.6902 2.442 14.2692 2.862 13.4262 3.701L7.58018 9.531C6.59618 10.511 5.98618 11.12 5.75018 11.707C5.67708 11.8854 5.63905 12.0762 5.63818 12.269C5.63818 13.071 6.28518 13.717 7.58018 15.008L7.75418 15.181L9.79218 13.112C9.86132 13.0418 9.94361 12.9859 10.0344 12.9475C10.1251 12.9091 10.2225 12.889 10.321 12.8883C10.4195 12.8875 10.5173 12.9062 10.6086 12.9432C10.6999 12.9802 10.783 13.0349 10.8532 13.104C10.9234 13.1731 10.9793 13.2554 11.0177 13.3462C11.056 13.4369 11.0762 13.5343 11.0769 13.6328C11.0777 13.7314 11.059 13.8291 11.022 13.9204C10.985 14.0117 10.9303 14.0948 10.8612 14.165L8.81618 16.24L8.95318 16.377C10.2482 17.667 10.8962 18.313 11.7002 18.313C11.8782 18.313 12.0482 18.282 12.2192 18.219C12.8222 17.997 13.4382 17.383 14.4472 16.377ZM17.1942 9.531C16.8294 9.8944 16.3356 10.0984 15.8207 10.0984C15.3058 10.0984 14.8119 9.8944 14.4472 9.531C14.2667 9.35163 14.1234 9.13833 14.0257 8.90338C13.9279 8.66843 13.8776 8.41647 13.8776 8.162C13.8776 7.90753 13.9279 7.65557 14.0257 7.42062C14.1234 7.18567 14.2667 6.97237 14.4472 6.793C14.8119 6.4296 15.3058 6.22555 15.8207 6.22555C16.3356 6.22555 16.8294 6.4296 17.1942 6.793C17.3747 6.97237 17.5179 7.18567 17.6157 7.42062C17.7134 7.65557 17.7638 7.90753 17.7638 8.162C17.7638 8.41647 17.7134 8.66843 17.6157 8.90338C17.5179 9.13833 17.3747 9.35163 17.1942 9.531Z" fill="currentColor"></path>
    <path opacity="0.5" d="M9.03379 5.96288L6.49079 8.49988C6.02379 8.96588 5.59479 9.39288 5.25579 9.77988C5.02639 10.035 4.81929 10.3094 4.63679 10.5999L4.61279 10.5749L4.51779 10.4809C4.07477 10.0529 3.55502 9.71228 2.98579 9.47688L2.86279 9.42688L2.48379 9.27688C2.36576 9.23035 2.26117 9.15515 2.17948 9.05809C2.09778 8.96102 2.04154 8.84514 2.01584 8.7209C1.99014 8.59666 1.99578 8.46797 2.03226 8.34646C2.06874 8.22494 2.13491 8.11442 2.22479 8.02488C3.34479 6.90688 4.68979 5.56588 5.33979 5.29688C5.90433 5.06107 6.52204 4.98195 7.12779 5.06788C7.67379 5.14888 8.18979 5.42988 9.03379 5.96288ZM13.3768 19.3129C13.5818 19.5209 13.7168 19.6679 13.8408 19.8249C14.0028 20.0322 14.1475 20.2515 14.2748 20.4829C14.4168 20.7429 14.5278 21.0199 14.7488 21.5749C14.7922 21.6798 14.8608 21.7725 14.9485 21.8446C15.0363 21.9166 15.1405 21.966 15.2519 21.9881C15.3632 22.0103 15.4784 22.0046 15.587 21.9716C15.6957 21.9386 15.7945 21.8793 15.8748 21.7989L15.9588 21.7159C17.0788 20.5989 18.4238 19.2579 18.6938 18.6109C18.931 18.0488 19.0101 17.4327 18.9228 16.8289C18.8418 16.2839 18.5608 15.7689 18.0258 14.9269L15.4738 17.4709C14.9958 17.9479 14.5578 18.3849 14.1608 18.7269C13.9238 18.9329 13.6638 19.1369 13.3768 19.3129Z" fill="currentColor"></path>
  </symbol>

  <symbol id="solar:letter-linear" viewBox="0 0 24 24" fill="none">
    <path d="M2 12C2 8.229 2 6.343 3.172 5.172C4.344 4.001 6.229 4 10 4H14C17.771 4 19.657 4 20.828 5.172C21.999 6.344 22 8.229 22 12C22 15.771 22 17.657 20.828 18.828C19.656 19.999 17.771 20 14 20H10C6.229 20 4.343 20 3.172 18.828C2.001 17.656 2 15.771 2 12Z" stroke="currentColor" stroke-width="1.5"></path>
    <path d="M6 8L8.159 9.8C9.996 11.33 10.914 12.095 12 12.095C13.086 12.095 14.005 11.33 15.841 9.799L18 8" stroke="currentColor" stroke-width="1.5" stroke-linecap="round"></path>
  </symbol>

  <symbol id="solar:letter-broken" viewBox="0 0 24 24" fill="none">
    <path d="M22 12C22 15.771 22 17.657 20.828 18.828C19.656 19.999 17.771 20 14 20H10C6.229 20 4.343 20 3.172 18.828C2.001 17.656 2 15.771 2 12C2 8.229 2 6.343 3.172 5.172C4.344 4.001 6.229 4 10 4H14C17.771 4 19.657 4 20.828 5.172C21.482 5.825 21.771 6.7 21.898 8" stroke="currentColor" stroke-width="1.5" stroke-linecap="round"></path>
    <path d="M18 8L15.841 9.8C14.005 11.33 13.086 12.095 12 12.095C11.35 12.095 10.761 11.821 10 11.275M6 8L6.9 8.75L7.8 9.5" stroke="currentColor" stroke-width="1.5" stroke-linecap="round"></path>
  </symbol>

  <symbol id="solar:map-broken" viewBox="0 0 24 24" fill="none">
    <path d="M21 7.16191C21 6.11891 21 5.59691 20.717 5.20391C20.434 4.81091 19.939 4.64591 18.949 4.31591L17.784 3.92791C16.417 3.47191 15.734 3.24391 15.045 3.33691C14.357 3.42891 13.757 3.82791 12.558 4.62691L11.176 5.54891C10.24 6.17291 9.772 6.48491 9.246 6.60891C9.05345 6.65487 8.85683 6.68167 8.659 6.68891C8.119 6.70691 7.586 6.52891 6.519 6.17291C5.121 5.70691 4.422 5.47391 3.89 5.71091C3.70147 5.79478 3.53228 5.91666 3.393 6.06891C3 6.49991 3 7.23591 3 8.70991V12.7749M21 10.9999V15.2899C21 16.7639 21 17.5009 20.607 17.9299C20.4679 18.0829 20.2987 18.2054 20.11 18.2899C19.578 18.5259 18.879 18.2929 17.481 17.8269C16.414 17.4709 15.881 17.2929 15.341 17.3119C15.1429 17.3184 14.9459 17.3445 14.753 17.3899C14.228 17.5149 13.76 17.8269 12.824 18.4499L11.442 19.3719C10.242 20.1719 9.643 20.5719 8.955 20.6629C8.267 20.7559 7.583 20.5279 6.216 20.0719L5.051 19.6839C4.061 19.3539 3.566 19.1889 3.283 18.7959C3.015 18.4239 3.001 17.9359 3 16.9999M15 3.49991V6.99991M15 16.9999V10.9999M9 20.4999V16.9999M9 6.99991V12.9999" stroke="currentColor" stroke-width="1.5" stroke-linecap="round"></path>
  </symbol>

  <symbol id="solar:map-linear" viewBox="0 0 24 24" fill="none">
    <path d="M9 6.639V20.5M15 3V17M3 8.71C3 7.236 3 6.5 3.393 6.07C3.53209 5.91703 3.70129 5.79447 3.89 5.71C4.422 5.474 5.121 5.707 6.519 6.173C7.586 6.529 8.119 6.707 8.659 6.688C8.8571 6.68149 9.05406 6.65536 9.247 6.61C9.772 6.485 10.24 6.173 11.176 5.55L12.558 4.628C13.758 3.828 14.357 3.428 15.045 3.337C15.733 3.244 16.417 3.472 17.784 3.928L18.949 4.316C19.939 4.646 20.434 4.811 20.717 5.204C21 5.597 21 6.12 21 7.162V15.291C21 16.764 21 17.501 20.607 17.931C20.4677 18.0832 20.2985 18.2051 20.11 18.289C19.578 18.526 18.879 18.293 17.481 17.827C16.414 17.471 15.881 17.293 15.341 17.312C15.1429 17.3185 14.9459 17.3446 14.753 17.39C14.228 17.515 13.76 17.827 12.824 18.45L11.442 19.372C10.242 20.172 9.643 20.572 8.955 20.663C8.267 20.756 7.583 20.528 6.216 20.072L5.051 19.684C4.061 19.354 3.566 19.189 3.283 18.796C3 18.403 3 17.88 3 16.838V8.71Z" stroke="currentColor" stroke-width="1.5"></path>
  </symbol>

  <symbol id="solar:map-point-linear" viewBox="0 0 24 24" fill="none">
    <path d="M4 10.143C4 5.646 7.582 2 12 2C16.418 2 20 5.646 20 10.143C20 14.605 17.447 19.813 13.463 21.674C13.0051 21.8884 12.5056 21.9996 12 21.9996C11.4944 21.9996 10.9949 21.8884 10.537 21.674C6.553 19.812 4 14.606 4 10.144V10.143Z" stroke="currentColor" stroke-width="1.5"></path>
    <path d="M12 13C13.6569 13 15 11.6569 15 10C15 8.34315 13.6569 7 12 7C10.3431 7 9 8.34315 9 10C9 11.6569 10.3431 13 12 13Z" stroke="currentColor" stroke-width="1.5"></path>
  </symbol>

  <symbol id="teenyicons:facebook-outline" viewBox="0 0 15 15" fill="none">
    <path d="M7.5 14.5C6.58075 14.5 5.6705 14.3189 4.82122 13.9672C3.97194 13.6154 3.20026 13.0998 2.55025 12.4497C1.90024 11.7997 1.38463 11.0281 1.03284 10.1788C0.68106 9.32951 0.5 8.41925 0.5 7.5C0.5 6.58075 0.68106 5.6705 1.03284 4.82122C1.38463 3.97194 1.90024 3.20026 2.55025 2.55025C3.20026 1.90024 3.97194 1.38463 4.82122 1.03284C5.6705 0.68106 6.58075 0.5 7.5 0.5C9.35652 0.5 11.137 1.2375 12.4497 2.55025C13.7625 3.86301 14.5 5.64348 14.5 7.5C14.5 9.35652 13.7625 11.137 12.4497 12.4497C11.137 13.7625 9.35652 14.5 7.5 14.5ZM7.5 14.5V6.5C7.5 5.96957 7.71071 5.46086 8.08579 5.08579C8.46086 4.71071 8.96957 4.5 9.5 4.5H10M5 8.5H10" stroke="currentColor"></path>
  </symbol>

  <symbol id="teenyicons:instagram-outline" viewBox="0 0 15 15" fill="none">
    <path d="M11 3.5H12M4.5 0.5H10.5C11.5609 0.5 12.5783 0.921427 13.3284 1.67157C14.0786 2.42172 14.5 3.43913 14.5 4.5V10.5C14.5 11.5609 14.0786 12.5783 13.3284 13.3284C12.5783 14.0786 11.5609 14.5 10.5 14.5H4.5C3.43913 14.5 2.42172 14.0786 1.67157 13.3284C0.921427 12.5783 0.5 11.5609 0.5 10.5V4.5C0.5 3.43913 0.921427 2.42172 1.67157 1.67157C2.42172 0.921427 3.43913 0.5 4.5 0.5ZM7.5 10.5C6.70435 10.5 5.94129 10.1839 5.37868 9.62132C4.81607 9.05871 4.5 8.29565 4.5 7.5C4.5 6.70435 4.81607 5.94129 5.37868 5.37868C5.94129 4.81607 6.70435 4.5 7.5 4.5C8.29565 4.5 9.05871 4.81607 9.62132 5.37868C10.1839 5.94129 10.5 6.70435 10.5 7.5C10.5 8.29565 10.1839 9.05871 9.62132 9.62132C9.05871 10.1839 8.29565 10.5 7.5 10.5Z" stroke="currentColor"></path>
  </symbol>

  <symbol id="teenyicons:telegram-outline" viewBox="0 0 15 15" fill="none">
    <path d="M14.5 1.5L0.5 6.5L4.5 8.5L10.5 4.5L6.5 9.5L12.5 13.5L14.5 1.5Z" stroke="currentColor" stroke-linejoin="round"></path>
  </symbol>

  <symbol id="solar:settings-bold-duotone" viewBox="0 0 24 24" fill="none">
    <path opacity="0.5" fill-rule="evenodd" clip-rule="evenodd" d="M14.2788 2.152C13.9088 2 13.4388 2 12.4998 2C11.5608 2 11.0918 2 10.7208 2.152C10.4767 2.25175 10.2547 2.39878 10.0677 2.58465C9.88061 2.77051 9.73214 2.99154 9.63083 3.235C9.53683 3.458 9.50083 3.719 9.48583 4.098C9.47869 4.3725 9.4019 4.64068 9.26266 4.87736C9.12342 5.11403 8.9263 5.31142 8.68983 5.451C8.44857 5.5851 8.17737 5.65615 7.90135 5.65754C7.62534 5.65894 7.35343 5.59065 7.11083 5.459C6.77283 5.281 6.52783 5.183 6.28583 5.151C5.75641 5.08192 5.22109 5.2242 4.79583 5.547C4.47783 5.789 4.24283 6.193 3.77383 7C3.30383 7.807 3.06983 8.21 3.01683 8.605C2.94683 9.131 3.09083 9.663 3.41683 10.084C3.56483 10.276 3.77383 10.437 4.09683 10.639C4.57383 10.936 4.87983 11.442 4.87983 12C4.87983 12.558 4.57383 13.064 4.09783 13.36C3.77383 13.563 3.56483 13.724 3.41583 13.916C3.25539 14.1242 3.13758 14.362 3.06911 14.6158C3.00065 14.8696 2.98288 15.1343 3.01683 15.395C3.06983 15.789 3.30383 16.193 3.77383 17C4.24383 17.807 4.47783 18.21 4.79583 18.453C5.21983 18.776 5.75583 18.918 6.28583 18.849C6.52783 18.817 6.77283 18.719 7.11083 18.541C7.35355 18.4092 7.62564 18.3408 7.90185 18.3422C8.17807 18.3436 8.44945 18.4147 8.69083 18.549C9.17683 18.829 9.46483 19.344 9.48583 19.902C9.50083 20.282 9.53683 20.542 9.63083 20.765C9.83483 21.255 10.2268 21.645 10.7208 21.848C11.0908 22 11.5608 22 12.4998 22C13.4388 22 13.9088 22 14.2788 21.848C14.5229 21.7483 14.7449 21.6012 14.932 21.4154C15.119 21.2295 15.2675 21.0085 15.3688 20.765C15.4628 20.542 15.4988 20.282 15.5138 19.902C15.5338 19.344 15.8228 18.828 16.3098 18.549C16.5511 18.4149 16.8223 18.3439 17.0983 18.3425C17.3743 18.3411 17.6462 18.4093 17.8888 18.541C18.2268 18.719 18.4718 18.817 18.7138 18.849C19.2438 18.919 19.7798 18.776 20.2038 18.453C20.5218 18.211 20.7568 17.807 21.2258 17C21.6958 16.193 21.9298 15.79 21.9828 15.395C22.0166 15.1343 21.9987 14.8695 21.9301 14.6157C21.8614 14.3619 21.7434 14.1241 21.5828 13.916C21.4348 13.724 21.2258 13.563 20.9028 13.361C20.4258 13.064 20.1198 12.558 20.1198 12C20.1198 11.442 20.4258 10.936 20.9018 10.64C21.2258 10.437 21.4348 10.276 21.5838 10.084C21.7443 9.87579 21.8621 9.63799 21.9305 9.38422C21.999 9.13044 22.0168 8.86565 21.9828 8.605C21.9298 8.211 21.6958 7.807 21.2258 7C20.7558 6.193 20.5218 5.79 20.2038 5.547C19.7786 5.2242 19.2432 5.08192 18.7138 5.151C18.4718 5.183 18.2268 5.281 17.8888 5.459C17.6461 5.59083 17.374 5.65922 17.0978 5.65782C16.8216 5.65642 16.5502 5.58528 16.3088 5.451C16.0725 5.3113 15.8756 5.11385 15.7366 4.87719C15.5975 4.64052 15.5209 4.37241 15.5138 4.098C15.4988 3.718 15.4628 3.458 15.3688 3.235C15.2675 2.99154 15.119 2.77051 14.932 2.58465C14.7449 2.39878 14.5229 2.25175 14.2788 2.152Z" fill="currentColor"></path>
    <path d="M15.5231 12C15.5231 13.657 14.1691 15 12.5001 15C10.8311 15 9.47705 13.657 9.47705 12C9.47705 10.343 10.8301 9 12.5001 9C14.1701 9 15.5231 10.343 15.5231 12Z" fill="currentColor"></path>
  </symbol>

  <symbol id="solar:wallet-money-bold-duotone" viewBox="0 0 24 24" fill="none">
    <path d="M4.8921 9.61423C4.8921 9.21223 5.2151 8.88623 5.6141 8.88623H9.4701C9.8701 8.88623 10.1931 9.21223 10.1931 9.61423C10.1935 9.70957 10.1751 9.80405 10.139 9.89229C10.1029 9.98052 10.0497 10.0608 9.98258 10.1285C9.91544 10.1962 9.83563 10.25 9.7477 10.2868C9.65976 10.3237 9.56544 10.3428 9.4701 10.3432H5.6141C5.42172 10.3422 5.23763 10.2648 5.10226 10.1281C4.96689 9.99143 4.8913 9.80661 4.8921 9.61423Z" fill="currentColor"></path>
    <path fill-rule="evenodd" clip-rule="evenodd" d="M21.188 10.0042C21.1253 10.0008 21.0587 9.9995 20.988 10.0002H18.215C15.944 10.0002 14 11.7362 14 14.0002C14 16.2642 15.944 18.0002 18.215 18.0002H20.988C21.0587 18.0008 21.1253 17.9995 21.188 17.9962C22.111 17.9402 22.927 17.2392 22.996 16.2592C23 16.1952 23 16.1262 23 16.0622V11.9382C23 11.8742 23 11.8052 22.996 11.7412C22.927 10.7612 22.111 10.0612 21.188 10.0042ZM17.971 15.0672C18.555 15.0672 19.029 14.5892 19.029 14.0002C19.029 13.4102 18.555 12.9332 17.971 12.9332C17.387 12.9332 16.911 13.4112 16.911 14.0002C16.911 14.5902 17.386 15.0672 17.971 15.0672Z" fill="currentColor"></path>
    <path opacity="0.5" d="M21.14 10.002C21.14 8.821 21.096 7.554 20.342 6.647C20.2681 6.55834 20.1903 6.47293 20.109 6.391C19.36 5.643 18.411 5.311 17.239 5.153C16.099 5 14.644 5 12.806 5H10.694C8.856 5 7.4 5 6.26 5.153C5.088 5.311 4.139 5.643 3.39 6.391C2.642 7.14 2.31 8.089 2.152 9.261C2 10.401 2 11.856 2 13.694V13.806C2 15.644 2 17.1 2.153 18.239C2.311 19.411 2.643 20.36 3.391 21.109C4.14 21.857 5.089 22.189 6.261 22.347C7.401 22.5 8.856 22.5 10.694 22.5H12.806C14.644 22.5 16.1 22.5 17.239 22.347C18.411 22.189 19.36 21.857 20.109 21.109C20.3123 20.9037 20.4877 20.6837 20.635 20.449C21.085 19.729 21.139 18.847 21.139 17.999L20.989 18H18.215C15.944 18 14 16.264 14 14C14 11.736 15.944 10 18.215 10H20.988C21.0407 10 21.092 10.0007 21.14 10.002Z" fill="currentColor"></path>
    <path d="M10.1011 2.57216L8.00009 3.99216L6.26709 5.15216C7.40509 5.00016 8.85909 5.00016 10.6941 5.00016H12.8061C14.6441 5.00016 16.1001 5.00016 17.2391 5.15316C17.4684 5.18316 17.6891 5.22116 17.9011 5.26716L16.0001 4.00016L13.8871 2.57216C13.3261 2.19936 12.6676 2.00049 11.9941 2.00049C11.3206 2.00049 10.662 2.19936 10.1011 2.57216Z" fill="currentColor"></path>
  </symbol>

  <symbol id="solar:help-bold-duotone" viewBox="0 0 24 24" fill="none">
    <path opacity="0.5" fill-rule="evenodd" clip-rule="evenodd" d="M12 22C17.523 22 22 17.523 22 12C22 6.477 17.523 2 12 2C6.477 2 2 6.477 2 12C2 17.523 6.477 22 12 22ZM12 16C13.0609 16 14.0783 15.5786 14.8284 14.8284C15.5786 14.0783 16 13.0609 16 12C16 10.9391 15.5786 9.92172 14.8284 9.17157C14.0783 8.42143 13.0609 8 12 8C10.9391 8 9.92172 8.42143 9.17157 9.17157C8.42143 9.92172 8 10.9391 8 12C8 13.0609 8.42143 14.0783 9.17157 14.8284C9.92172 15.5786 10.9391 16 12 16Z" fill="currentColor"></path>
    <path d="M5.47897 19.582L9.75097 15.309C9.33399 15.0256 8.97434 14.666 8.69097 14.249L4.41797 18.52C4.7453 18.9 5.09864 19.2533 5.47797 19.58M4.41797 5.47999L8.69097 9.75199C8.97434 9.33502 9.33399 8.97537 9.75097 8.69199L5.47997 4.41699C5.09997 4.74499 4.7463 5.09866 4.41897 5.47799M14.248 8.69099L18.52 4.41999C18.9 4.74666 19.2533 5.09999 19.58 5.47999L15.31 9.75199C15.0263 9.33492 14.6663 8.97527 14.249 8.69199M19.581 18.521L15.308 14.248C15.0246 14.665 14.6649 15.0246 14.248 15.308L18.52 19.582C18.9006 19.2547 19.2543 18.901 19.581 18.521Z" fill="currentColor"></path>
  </symbol>

  <symbol id="solar:hand-money-bold-duotone" viewBox="0 0 24 24" fill="none">
    <path opacity="0.5" d="M6.26 21.388H6C5.057 21.388 4.586 21.388 4.293 21.095C4 20.804 4 20.332 4 19.389V18.277C4 17.759 4 17.5 4.133 17.268C4.266 17.036 4.467 16.92 4.869 16.686C7.515 15.147 11.272 14.281 13.779 15.776C13.9477 15.8766 14.0977 15.9993 14.229 16.144C14.3636 16.291 14.4672 16.4636 14.5339 16.6514C14.6006 16.8393 14.6289 17.0386 14.6171 17.2376C14.6054 17.4366 14.5538 17.6312 14.4655 17.8099C14.3772 17.9886 14.2539 18.1478 14.103 18.278C13.9828 18.3921 13.836 18.4746 13.676 18.518C13.796 18.504 13.911 18.4883 14.021 18.471C14.932 18.326 15.697 17.838 16.397 17.309L18.205 15.944C18.5277 15.7098 18.9163 15.5837 19.315 15.5837C19.7137 15.5837 20.1023 15.7098 20.425 15.944C20.998 16.377 21.174 17.09 20.811 17.672C20.388 18.35 19.792 19.217 19.22 19.747C18.648 20.277 17.794 20.751 17.098 21.087C16.326 21.46 15.474 21.674 14.607 21.815C12.849 22.099 11.017 22.055 9.277 21.697C8.28432 21.4926 7.27349 21.3884 6.26 21.388Z" fill="currentColor"></path>
    <path d="M6.58578 2.58579C6.21878 2.95279 6.08179 3.45879 6.03079 4.24979C6.61698 4.24176 7.17689 4.00526 7.59133 3.59063C8.00578 3.176 8.24202 2.61598 8.24978 2.02979C7.45978 2.08179 6.95278 2.21879 6.58578 2.58579ZM17.4138 2.58579C17.0468 2.21879 16.5408 2.08179 15.7498 2.03079C15.7578 2.61698 15.9943 3.17689 16.4089 3.59133C16.8236 4.00578 17.3836 4.24202 17.9698 4.24979C17.9178 3.45979 17.7808 2.95279 17.4138 2.58579ZM17.4138 9.41378C17.0468 9.78079 16.5408 9.91779 15.7498 9.96879C15.7578 9.38259 15.9943 8.82268 16.4089 8.40824C16.8236 7.99379 17.3836 7.75755 17.9698 7.74979C17.9178 8.53979 17.7808 9.04678 17.4138 9.41378ZM6.58578 9.41378C6.95278 9.78079 7.45878 9.91779 8.24978 9.96879C8.24176 9.38259 8.00526 8.82268 7.59063 8.40824C7.176 7.99379 6.61598 7.75755 6.02979 7.74979C6.08179 8.53979 6.21878 9.04678 6.58578 9.41378Z" fill="currentColor"></path>
    <path fill-rule="evenodd" clip-rule="evenodd" d="M6 5.75C6.99456 5.75 7.94839 5.35491 8.65165 4.65165C9.35491 3.94839 9.75 2.99456 9.75 2H14.25C14.25 2.99456 14.6451 3.94839 15.3483 4.65165C16.0516 5.35491 17.0054 5.75 18 5.75V6.25C17.0054 6.25 16.0516 6.64509 15.3483 7.34835C14.6451 8.05161 14.25 9.00544 14.25 10H9.75C9.75 9.00544 9.35491 8.05161 8.65165 7.34835C7.94839 6.64509 6.99456 6.25 6 6.25V5.75ZM12 7C12.2652 7 12.5196 6.89464 12.7071 6.70711C12.8946 6.51957 13 6.26522 13 6C13 5.73478 12.8946 5.48043 12.7071 5.29289C12.5196 5.10536 12.2652 5 12 5C11.7348 5 11.4804 5.10536 11.2929 5.29289C11.1054 5.48043 11 5.73478 11 6C11 6.26522 11.1054 6.51957 11.2929 6.70711C11.4804 6.89464 11.7348 7 12 7Z" fill="currentColor"></path>
  </symbol>

  <symbol id="solar:question-square-bold-duotone" viewBox="0 0 24 24" fill="none">
    <path opacity="0.5" d="M12 22C7.286 22 4.929 22 3.464 20.535C2 19.072 2 16.714 2 12C2 7.286 2 4.929 3.464 3.464C4.93 2 7.286 2 12 2C16.714 2 19.071 2 20.535 3.464C22 4.93 22 7.286 22 12C22 16.714 22 19.071 20.535 20.535C19.072 22 16.714 22 12 22Z" fill="currentColor"></path>
    <path d="M12 7.74992C11.379 7.74992 10.875 8.25392 10.875 8.87492C10.875 9.07383 10.796 9.26459 10.6553 9.40525C10.5147 9.5459 10.3239 9.62492 10.125 9.62492C9.92609 9.62492 9.73532 9.5459 9.59467 9.40525C9.45402 9.26459 9.375 9.07383 9.375 8.87492C9.37501 8.44485 9.48069 8.02138 9.68274 7.64174C9.88479 7.26209 10.177 6.93791 10.5337 6.69768C10.8905 6.45746 11.3007 6.30856 11.7285 6.26408C12.1562 6.2196 12.5884 6.28089 12.9869 6.44258C13.3854 6.60426 13.7381 6.86139 14.0139 7.19133C14.2898 7.52128 14.4803 7.91395 14.5688 8.33481C14.6573 8.75567 14.6411 9.19182 14.5215 9.60492C14.4019 10.018 14.1826 10.3954 13.883 10.7039C13.791 10.7986 13.703 10.8876 13.619 10.9709C13.4165 11.165 13.2258 11.371 13.048 11.5879C12.828 11.8699 12.75 12.0769 12.75 12.2499V12.9999C12.75 13.1988 12.671 13.3896 12.5303 13.5302C12.3897 13.6709 12.1989 13.7499 12 13.7499C11.8011 13.7499 11.6103 13.6709 11.4697 13.5302C11.329 13.3896 11.25 13.1988 11.25 12.9999V12.2499C11.25 11.5949 11.555 11.0639 11.864 10.6669C12.093 10.3729 12.38 10.0869 12.614 9.85292C12.6847 9.78292 12.749 9.71825 12.807 9.65892C12.9611 9.50032 13.0651 9.29981 13.1059 9.08247C13.1467 8.86512 13.1225 8.64057 13.0364 8.43687C12.9503 8.23318 12.8061 8.05939 12.6217 7.93721C12.4374 7.81503 12.2211 7.74988 12 7.74992ZM12 16.9999C12.2652 16.9999 12.5196 16.8946 12.7071 16.707C12.8946 16.5195 13 16.2651 13 15.9999C13 15.7347 12.8946 15.4803 12.7071 15.2928C12.5196 15.1053 12.2652 14.9999 12 14.9999C11.7348 14.9999 11.4804 15.1053 11.2929 15.2928C11.1054 15.4803 11 15.7347 11 15.9999C11 16.2651 11.1054 16.5195 11.2929 16.707C11.4804 16.8946 11.7348 16.9999 12 16.9999Z" fill="currentColor"></path>
  </symbol>

  <symbol id="solar:alt-arrow-right-linear" viewBox="0 0 24 24" fill="none">
    <path d="M9 5L15 12L9 19" stroke="currentColor" stroke-width="1.5" stroke-linecap="round" stroke-linejoin="round"></path>
  </symbol>

  <symbol id="solar:alt-arrow-right-outline" viewBox="0 0 24 24" fill="none">
    <path fill-rule="evenodd" clip-rule="evenodd" d="M8.51187 4.43002C8.66295 4.30081 8.85914 4.23687 9.05734 4.25225C9.25554 4.26762 9.43952 4.36106 9.56887 4.51202L15.5689 11.512C15.6853 11.6479 15.7493 11.821 15.7493 12C15.7493 12.179 15.6853 12.3521 15.5689 12.488L9.56887 19.488C9.43738 19.6316 9.25522 19.7184 9.06088 19.7301C8.86655 19.7419 8.67527 19.6775 8.52749 19.5508C8.37971 19.4241 8.287 19.2448 8.26897 19.051C8.25094 18.8571 8.309 18.6638 8.43087 18.512L14.0119 12L8.43087 5.48802C8.30142 5.33719 8.23714 5.14115 8.25214 4.94296C8.26714 4.74478 8.3602 4.56064 8.51087 4.43102" fill="currentColor"></path>
  </symbol>

  <symbol id="solar:phone-calling-rounded-bold-duotone" viewBox="0 0 24 24" fill="none">
    <path opacity="0.5" d="M10.0381 5.31622L10.6871 6.47922C11.2721 7.52922 11.0371 8.90522 10.1151 9.82822C10.1151 9.82822 8.99515 10.9472 11.0251 12.9762C13.0521 15.0032 14.1721 13.8862 14.1721 13.8862C15.0951 12.9632 16.4721 12.7282 17.5211 13.3132L18.6841 13.9632C20.2691 14.8472 20.4561 17.0692 19.0631 18.4632C18.2261 19.2992 17.2001 19.9512 16.0671 19.9932C14.1591 20.0662 10.9181 19.5832 7.66715 16.3332C4.41715 13.0822 3.93415 9.84122 4.00715 7.93322C4.05015 6.80022 4.70115 5.77422 5.53715 4.93722C6.93115 3.54422 9.15315 3.73122 10.0371 5.31722" fill="currentColor"></path>
    <path d="M13.2602 1.87978C13.276 1.78252 13.3108 1.68933 13.3626 1.60552C13.4144 1.52172 13.4823 1.44895 13.5622 1.39138C13.6422 1.3338 13.7327 1.29254 13.8286 1.26996C13.9245 1.24738 14.0239 1.24392 14.1212 1.25978C14.1462 1.26478 14.2282 1.27978 14.2712 1.28978C14.3572 1.30778 14.4745 1.33778 14.6232 1.37978C14.9202 1.46678 15.3352 1.60978 15.8332 1.83778C16.8292 2.29478 18.1542 3.09378 19.5302 4.46878C20.9062 5.84478 21.7052 7.17078 22.1622 8.16678C22.3902 8.66478 22.5322 9.07878 22.6192 9.37678C22.6627 9.52658 22.7004 9.67803 22.7322 9.83078L22.7372 9.86178C22.7701 10.0598 22.7239 10.2629 22.6084 10.4271C22.493 10.5914 22.3177 10.7037 22.1202 10.7398C21.9244 10.7716 21.7239 10.7245 21.5628 10.6089C21.4016 10.4932 21.2928 10.3184 21.2602 10.1228C21.2393 10.0123 21.2123 9.90317 21.1792 9.79578C21.077 9.45235 20.95 9.1168 20.7992 8.79178C20.4092 7.94178 19.7072 6.76778 18.4692 5.52978C17.2312 4.29178 16.0582 3.59078 15.2072 3.20078C14.8825 3.05001 14.5473 2.92301 14.2042 2.82078C14.0989 2.79122 13.9929 2.76454 13.8862 2.74078C13.6899 2.70783 13.5143 2.59918 13.3973 2.43818C13.2802 2.27718 13.231 2.07668 13.2602 1.87978Z" fill="currentColor"></path>
    <path fill-rule="evenodd" clip-rule="evenodd" d="M13.4861 5.3299C13.5131 5.23513 13.5584 5.14661 13.6196 5.06939C13.6808 4.99217 13.7566 4.92776 13.8427 4.87984C13.9288 4.83192 14.0235 4.80143 14.1213 4.79012C14.2192 4.7788 14.3183 4.78688 14.4131 4.8139L14.4161 4.8149L14.4191 4.8159L14.4271 4.8179L14.4471 4.8239L14.5031 4.8439C14.5478 4.85923 14.6068 4.88256 14.6801 4.9139C14.8261 4.9759 15.0251 5.0719 15.2701 5.2169C15.7591 5.5069 16.4271 5.9869 17.2121 6.7729C17.9971 7.5579 18.4781 8.2259 18.7681 8.7149C18.9131 8.9599 19.0091 9.1589 19.0711 9.3049C19.1043 9.38128 19.1343 9.45901 19.1611 9.5379L19.1661 9.5579L19.1691 9.5659V9.5689L19.1701 9.5699C19.1701 9.5699 19.1701 9.5719 18.4501 9.7779L19.1701 9.5719C19.2209 9.76112 19.1956 9.9627 19.0997 10.1335C19.0038 10.3044 18.8448 10.4309 18.6568 10.486C18.4688 10.5411 18.2667 10.5205 18.0937 10.4285C17.9207 10.3366 17.7905 10.1806 17.7311 9.9939L17.7281 9.9839L17.6931 9.8959C17.6293 9.75279 17.5572 9.61355 17.4771 9.4789C17.2541 9.1029 16.8511 8.5329 16.1511 7.8329C15.4511 7.1329 14.8821 6.7309 14.5051 6.5079C14.3432 6.41284 14.1748 6.3293 14.0011 6.2579L13.9911 6.2539C13.8022 6.1971 13.6433 6.06818 13.5487 5.89504C13.4542 5.72191 13.4317 5.51951 13.4861 5.3299Z" fill="currentColor"></path>
  </symbol>

  <symbol id="solar:map-point-wave-bold-duotone" viewBox="0 0 24 24" fill="none">
    <path opacity="0.5" d="M19.717 20.362C21.143 19.585 22 18.587 22 17.5C22 16.348 21.037 15.296 19.454 14.5C17.623 13.58 14.962 13 12 13C9.038 13 6.377 13.58 4.546 14.5C2.963 15.296 2 16.348 2 17.5C2 18.652 2.963 19.704 4.546 20.5C6.377 21.42 9.038 22 12 22C15.107 22 17.882 21.363 19.717 20.362Z" fill="currentColor"></path>
    <path fill-rule="evenodd" clip-rule="evenodd" d="M5 8.515C5 4.917 8.134 2 12 2C15.866 2 19 4.917 19 8.515C19 12.085 16.766 16.25 13.28 17.74C12.8751 17.9116 12.4398 18.0001 12 18.0001C11.5602 18.0001 11.1249 17.9116 10.72 17.74C7.234 16.25 5 12.084 5 8.515ZM12 11C12.5304 11 13.0391 10.7893 13.4142 10.4142C13.7893 10.0391 14 9.53043 14 9C14 8.46957 13.7893 7.96086 13.4142 7.58579C13.0391 7.21071 12.5304 7 12 7C11.4696 7 10.9609 7.21071 10.5858 7.58579C10.2107 7.96086 10 8.46957 10 9C10 9.53043 10.2107 10.0391 10.5858 10.4142C10.9609 10.7893 11.4696 11 12 11Z" fill="currentColor"></path>
  </symbol>

  <symbol id="solar:point-on-map-bold-duotone" viewBox="0 0 24 24" fill="none">
    <path opacity="0.5" d="M3 13.0371C3 11.9341 3 11.3821 3.393 11.0611C3.532 10.9471 3.701 10.8551 3.89 10.7921C4.422 10.6151 5.121 10.7901 6.519 11.1381C7.586 11.4051 8.119 11.5381 8.659 11.5241C8.85767 11.5188 9.05367 11.4991 9.247 11.4651C9.772 11.3721 10.24 11.1391 11.176 10.6721L12.558 9.98209C13.758 9.38309 14.357 9.08409 15.045 9.01509C15.733 8.94609 16.417 9.11709 17.784 9.45809L18.949 9.74809C19.939 9.99509 20.434 10.1191 20.717 10.4131C21 10.7071 21 11.0981 21 11.8791V17.9631C21 19.0661 21 19.6181 20.607 19.9391C20.4586 20.0575 20.2903 20.1486 20.11 20.2081C19.578 20.3851 18.879 20.2111 17.481 19.8621C16.414 19.5951 15.881 19.4621 15.341 19.4761C15.1438 19.4812 14.9473 19.501 14.753 19.5351C14.228 19.6281 13.76 19.8611 12.824 20.3281L11.442 21.0181C10.242 21.6171 9.643 21.9161 8.955 21.9851C8.267 22.0541 7.583 21.8831 6.216 21.5421L5.051 21.2521C4.061 21.0051 3.566 20.8811 3.283 20.5871C3 20.2931 3 19.9021 3 19.1211V13.0371Z" fill="currentColor"></path>
    <path fill-rule="evenodd" clip-rule="evenodd" d="M12 2C8.686 2 6 4.552 6 7.7C6 10.824 7.915 14.469 10.903 15.772C11.2493 15.922 11.6226 15.9994 12 15.9994C12.3774 15.9994 12.7507 15.922 13.097 15.772C16.085 14.47 18 10.824 18 7.7C18 4.552 15.314 2 12 2ZM12 10C12.5304 10 13.0391 9.78929 13.4142 9.41421C13.7893 9.03914 14 8.53043 14 8C14 7.46957 13.7893 6.96086 13.4142 6.58579C13.0391 6.21071 12.5304 6 12 6C11.4696 6 10.9609 6.21071 10.5858 6.58579C10.2107 6.96086 10 7.46957 10 8C10 8.53043 10.2107 9.03914 10.5858 9.41421C10.9609 9.78929 11.4696 10 12 10Z" fill="currentColor"></path>
  </symbol>

  <symbol id="solar:point-on-map-perspective-bold-duotone" viewBox="0 0 24 24" fill="none">
    <path opacity="0.5" d="M22 16C22 13.172 22 11.757 21.121 10.879C20.631 10.389 19.975 10.172 19.001 10.076C18.167 10.051 16.201 10 15.001 10H8C5.954 10 4.649 10 3.75 10.332L21.686 20.197C22 19.3 22 18.006 22 16Z" fill="currentColor"></path>
    <path d="M10.758 15.898L2.51 11.362C2 12.264 2 13.64 2 16C2 18.666 2 20.075 2.736 20.964L10.758 15.898ZM8 22H16C18.482 22 19.875 22 20.773 21.406L12.259 16.724L4.216 21.804C5.087 22 6.283 22 8 22ZM17 2C16.2696 1.99975 15.5643 2.26595 15.0162 2.74867C14.4681 3.23138 14.1149 3.89747 14.0229 4.622C13.9309 5.34654 14.1063 6.07977 14.5163 6.68417C14.9263 7.28858 15.5428 7.72266 16.25 7.905V13C16.25 13.1989 16.329 13.3897 16.4697 13.5303C16.6103 13.671 16.8011 13.75 17 13.75C17.1989 13.75 17.3897 13.671 17.5303 13.5303C17.671 13.3897 17.75 13.1989 17.75 13V7.905C18.4557 7.7211 19.0703 7.28652 19.4789 6.68249C19.8875 6.07846 20.0622 5.34631 19.9703 4.62287C19.8784 3.89943 19.5262 3.23419 18.9796 2.75149C18.433 2.26879 17.7293 2.00165 17 2Z" fill="currentColor"></path>
  </symbol>

  <symbol id="solar:letter-bold-duotone" viewBox="0 0 24 24" fill="none">
    <path opacity="0.5" d="M14.2 3H9.8C5.652 3 3.577 3 2.289 4.318C1.001 5.636 1 7.758 1 12C1 16.242 1 18.364 2.289 19.682C3.578 21 5.652 21 9.8 21H14.2C18.348 21 20.423 21 21.711 19.682C22.999 18.364 23 16.242 23 12C23 7.758 23 5.636 21.711 4.318C20.422 3 18.348 3 14.2 3Z" fill="currentColor"></path>
    <path d="M19.1278 8.0328C19.2959 7.89277 19.4016 7.69167 19.4214 7.47376C19.4413 7.25584 19.3738 7.03895 19.2338 6.8708C19.0937 6.70265 18.8926 6.59702 18.6747 6.57714C18.4568 6.55727 18.2399 6.62477 18.0718 6.7648L15.6968 8.7448C14.6708 9.5998 13.9588 10.1918 13.3568 10.5778C12.7748 10.9528 12.3798 11.0778 11.9998 11.0778C11.6198 11.0778 11.2258 10.9528 10.6428 10.5778C10.0418 10.1918 9.32878 9.5998 8.30278 8.7438L5.92778 6.7648C5.75963 6.62477 5.54274 6.55727 5.32483 6.57714C5.10691 6.59702 4.90581 6.70265 4.76578 6.8708C4.62574 7.03895 4.55824 7.25584 4.57812 7.47376C4.598 7.69167 4.70363 7.89277 4.87178 8.0328L7.28778 10.0468C8.26278 10.8588 9.05278 11.5168 9.75078 11.9668C10.4768 12.4328 11.1848 12.7288 12.0008 12.7288C12.8148 12.7288 13.5228 12.4328 14.2498 11.9658C14.9468 11.5178 15.7368 10.8588 16.7118 10.0458L19.1278 8.0328Z" fill="currentColor"></path>
  </symbol>

  <symbol id="solar:letter-opened-bold-duotone" viewBox="0 0 24 24" fill="none">
    <path fill-rule="evenodd" clip-rule="evenodd" d="M6.72 10.6L8.159 11.8C9.995 13.33 10.914 14.095 11.999 14.095C13.086 14.095 14.004 13.33 15.841 11.799L17.281 10.599C17.634 10.305 17.811 10.157 17.905 9.956C18 9.754 18 9.524 18 9.063V7C18 6.68 17.9993 6.38067 17.998 6.102C17.986 4.331 17.9 3.365 17.268 2.732C16.535 2 15.357 2 13 2H11C8.643 2 7.464 2 6.732 2.732C6.099 3.365 6.012 4.331 6 6.102V9.063C6 9.523 6 9.754 6.094 9.956C6.189 10.157 6.367 10.305 6.72 10.6ZM9.25 6C9.25 5.80109 9.32902 5.61032 9.46967 5.46967C9.61032 5.32902 9.80109 5.25 10 5.25H14C14.1989 5.25 14.3897 5.32902 14.5303 5.46967C14.671 5.61032 14.75 5.80109 14.75 6C14.75 6.19891 14.671 6.38968 14.5303 6.53033C14.3897 6.67098 14.1989 6.75 14 6.75H10C9.80109 6.75 9.61032 6.67098 9.46967 6.53033C9.32902 6.38968 9.25 6.19891 9.25 6ZM10.25 9C10.25 8.80109 10.329 8.61032 10.4697 8.46967C10.6103 8.32902 10.8011 8.25 11 8.25H13C13.1989 8.25 13.3897 8.32902 13.5303 8.46967C13.671 8.61032 13.75 8.80109 13.75 9C13.75 9.19891 13.671 9.38968 13.5303 9.53033C13.3897 9.67098 13.1989 9.75 13 9.75H11C10.8011 9.75 10.6103 9.67098 10.4697 9.53033C10.329 9.38968 10.25 9.19891 10.25 9Z" fill="currentColor"></path>
    <path opacity="0.5" d="M8.159 11.8001L6.719 10.6001C6.366 10.3051 6.189 10.1581 6.094 9.95605C5.999 9.75405 6 9.52405 6 9.06405V6.10205C4.7 6.23005 3.825 6.51905 3.172 7.17205C2 8.34305 2 10.2301 2 14.0021C2 17.7721 2 19.6581 3.172 20.8291C4.344 22.0001 6.229 22.0021 10 22.0021H14C17.771 22.0021 19.657 22.0021 20.828 20.8301C21.999 19.6581 22 17.7731 22 14.0021C22 10.2311 22 8.34405 20.828 7.17205C20.175 6.51905 19.299 6.23005 17.998 6.10205C17.9993 6.38205 18 6.68205 18 7.00205V9.06505C18 9.52505 18 9.75505 17.905 9.95705C17.811 10.1591 17.635 10.3071 17.28 10.6011L15.84 11.8011C14.004 13.331 13.086 14.0961 12 14.0961C10.914 14.0961 9.995 13.3301 8.159 11.8001Z" fill="currentColor"></path>
  </symbol>

  <symbol id="solar:clock-circle-bold-duotone" viewBox="0 0 24 24" fill="none">
    <path opacity="0.5" d="M12 22C17.523 22 22 17.523 22 12C22 6.477 17.523 2 12 2C6.477 2 2 6.477 2 12C2 17.523 6.477 22 12 22Z" fill="currentColor"></path>
    <path fill-rule="evenodd" clip-rule="evenodd" d="M12 7.25C12.1989 7.25 12.3897 7.32902 12.5303 7.46967C12.671 7.61032 12.75 7.80109 12.75 8V11.69L15.03 13.97C15.1037 14.0387 15.1628 14.1215 15.2038 14.2135C15.2448 14.3055 15.2668 14.4048 15.2686 14.5055C15.2704 14.6062 15.2518 14.7062 15.2141 14.7996C15.1764 14.893 15.1203 14.9778 15.049 15.049C14.9778 15.1203 14.893 15.1764 14.7996 15.2141C14.7062 15.2518 14.6062 15.2704 14.5055 15.2686C14.4048 15.2668 14.3055 15.2448 14.2135 15.2038C14.1215 15.1628 14.0387 15.1037 13.97 15.03L11.47 12.53C11.3293 12.3895 11.2502 12.1988 11.25 12V8C11.25 7.80109 11.329 7.61032 11.4697 7.46967C11.6103 7.32902 11.8011 7.25 12 7.25Z" fill="currentColor"></path>
  </symbol>

  <symbol id="solar:clock-square-bold-duotone" viewBox="0 0 24 24" fill="none">
    <path opacity="0.5" d="M3.464 20.536C4.93 22 7.286 22 12 22C16.714 22 19.071 22 20.535 20.535C22 19.072 22 16.714 22 12C22 7.286 22 4.929 20.535 3.464C19.072 2 16.714 2 12 2C7.286 2 4.929 2 3.464 3.464C2 4.93 2 7.286 2 12C2 16.714 2 19.072 3.464 20.536Z" fill="currentColor"></path>
    <path fill-rule="evenodd" clip-rule="evenodd" d="M12 7.25C12.1989 7.25 12.3897 7.32902 12.5303 7.46967C12.671 7.61032 12.75 7.80109 12.75 8V11.69L15.03 13.97C15.1037 14.0387 15.1628 14.1215 15.2038 14.2135C15.2448 14.3055 15.2668 14.4048 15.2686 14.5055C15.2704 14.6062 15.2518 14.7062 15.2141 14.7996C15.1764 14.893 15.1203 14.9778 15.049 15.049C14.9778 15.1203 14.893 15.1764 14.7996 15.2141C14.7062 15.2518 14.6062 15.2704 14.5055 15.2686C14.4048 15.2668 14.3055 15.2448 14.2135 15.2038C14.1215 15.1628 14.0387 15.1037 13.97 15.03L11.47 12.53C11.3293 12.3895 11.2502 12.1988 11.25 12V8C11.25 7.80109 11.329 7.61032 11.4697 7.46967C11.6103 7.32902 11.8011 7.25 12 7.25Z" fill="currentColor"></path>
  </symbol>

  <symbol id="solar:calendar-bold-duotone" viewBox="0 0 24 24" fill="none">
    <path d="M6.94 2C7.356 2 7.693 2.324 7.693 2.724V4.184C8.361 4.172 9.11 4.172 9.953 4.172H13.968C14.81 4.172 15.559 4.172 16.227 4.185V2.725C16.227 2.325 16.564 2 16.98 2C17.396 2 17.733 2.324 17.733 2.724V4.25C19.178 4.361 20.127 4.634 20.823 5.305C21.521 5.975 21.805 6.887 21.92 8.277L22 9H2V8.276C2.116 6.886 2.4 5.974 3.097 5.304C3.794 4.634 4.742 4.36 6.187 4.249V2.724C6.187 2.324 6.524 2 6.94 2Z" fill="currentColor"></path>
    <path opacity="0.5" d="M21.9998 14V12C21.9998 11.161 21.9958 9.665 21.9828 9H2.00981C1.99681 9.665 1.99981 11.161 1.99981 12V14C1.99981 17.771 1.99981 19.657 3.17181 20.828C4.34381 21.999 6.22781 22 9.99981 22H13.9998C17.7698 22 19.6558 22 20.8278 20.828C21.9998 19.656 21.9998 17.772 21.9998 14Z" fill="currentColor"></path>
    <path d="M18 17C18 17.2652 17.8946 17.5196 17.7071 17.7071C17.5196 17.8946 17.2652 18 17 18C16.7348 18 16.4804 17.8946 16.2929 17.7071C16.1054 17.5196 16 17.2652 16 17C16 16.7348 16.1054 16.4804 16.2929 16.2929C16.4804 16.1054 16.7348 16 17 16C17.2652 16 17.5196 16.1054 17.7071 16.2929C17.8946 16.4804 18 16.7348 18 17ZM18 13C18 13.2652 17.8946 13.5196 17.7071 13.7071C17.5196 13.8946 17.2652 14 17 14C16.7348 14 16.4804 13.8946 16.2929 13.7071C16.1054 13.5196 16 13.2652 16 13C16 12.7348 16.1054 12.4804 16.2929 12.2929C16.4804 12.1054 16.7348 12 17 12C17.2652 12 17.5196 12.1054 17.7071 12.2929C17.8946 12.4804 18 12.7348 18 13ZM13 17C13 17.2652 12.8946 17.5196 12.7071 17.7071C12.5196 17.8946 12.2652 18 12 18C11.7348 18 11.4804 17.8946 11.2929 17.7071C11.1054 17.5196 11 17.2652 11 17C11 16.7348 11.1054 16.4804 11.2929 16.2929C11.4804 16.1054 11.7348 16 12 16C12.2652 16 12.5196 16.1054 12.7071 16.2929C12.8946 16.4804 13 16.7348 13 17ZM13 13C13 13.2652 12.8946 13.5196 12.7071 13.7071C12.5196 13.8946 12.2652 14 12 14C11.7348 14 11.4804 13.8946 11.2929 13.7071C11.1054 13.5196 11 13.2652 11 13C11 12.7348 11.1054 12.4804 11.2929 12.2929C11.4804 12.1054 11.7348 12 12 12C12.2652 12 12.5196 12.1054 12.7071 12.2929C12.8946 12.4804 13 12.7348 13 13ZM8 17C8 17.2652 7.89464 17.5196 7.70711 17.7071C7.51957 17.8946 7.26522 18 7 18C6.73478 18 6.48043 17.8946 6.29289 17.7071C6.10536 17.5196 6 17.2652 6 17C6 16.7348 6.10536 16.4804 6.29289 16.2929C6.48043 16.1054 6.73478 16 7 16C7.26522 16 7.51957 16.1054 7.70711 16.2929C7.89464 16.4804 8 16.7348 8 17ZM8 13C8 13.2652 7.89464 13.5196 7.70711 13.7071C7.51957 13.8946 7.26522 14 7 14C6.73478 14 6.48043 13.8946 6.29289 13.7071C6.10536 13.5196 6 13.2652 6 13C6 12.7348 6.10536 12.4804 6.29289 12.2929C6.48043 12.1054 6.73478 12 7 12C7.26522 12 7.51957 12.1054 7.70711 12.2929C7.89464 12.4804 8 12.7348 8 13Z" fill="currentColor"></path>
  </symbol>

  <symbol id="solar:calendar-minimalistic-bold-duotone" viewBox="0 0 24 24" fill="none">
    <path d="M6.94 2C7.356 2 7.693 2.324 7.693 2.724V4.184C8.361 4.172 9.11 4.172 9.953 4.172H13.968C14.81 4.172 15.559 4.172 16.227 4.185V2.725C16.227 2.325 16.564 2 16.98 2C17.396 2 17.733 2.324 17.733 2.724V4.25C19.178 4.361 20.127 4.634 20.823 5.305C21.521 5.975 21.805 6.887 21.92 8.277L22 9H2V8.276C2.116 6.886 2.4 5.974 3.097 5.304C3.794 4.634 4.742 4.36 6.187 4.249V2.724C6.187 2.324 6.524 2 6.94 2Z" fill="currentColor"></path>
    <path opacity="0.5" d="M21.9998 14V12C21.9998 11.161 21.9958 9.665 21.9828 9H2.00981C1.99681 9.665 1.99981 11.161 1.99981 12V14C1.99981 17.771 1.99981 19.657 3.17181 20.828C4.34381 21.999 6.22781 22 9.99981 22H13.9998C17.7698 22 19.6558 22 20.8278 20.828C21.9998 19.656 21.9998 17.772 21.9998 14Z" fill="currentColor"></path>
  </symbol>

  <symbol id="solar:bed-bold-duotone" viewBox="0 0 24 24" fill="none">
    <path d="M3.002 12.267C2.61966 12.4871 2.32082 12.8274 2.152 13.235C2 13.602 2 14.068 2 15C2 15.932 2 16.398 2.152 16.765C2.25251 17.0078 2.3999 17.2284 2.58572 17.4143C2.77155 17.6001 2.99218 17.7475 3.235 17.848C3.487 17.952 3.785 17.985 4.25 17.995V20C4.25 20.1989 4.32902 20.3897 4.46967 20.5303C4.61032 20.671 4.80109 20.75 5 20.75C5.19891 20.75 5.38968 20.671 5.53033 20.5303C5.67098 20.3897 5.75 20.1989 5.75 20V18H18.25V20C18.25 20.1989 18.329 20.3897 18.4697 20.5303C18.6103 20.671 18.8011 20.75 19 20.75C19.1989 20.75 19.3897 20.671 19.5303 20.5303C19.671 20.3897 19.75 20.1989 19.75 20V17.995C20.214 17.985 20.513 17.952 20.765 17.848C21.0078 17.7475 21.2284 17.6001 21.4143 17.4143C21.6001 17.2284 21.7475 17.0078 21.848 16.765C22 16.398 22 15.932 22 15C22 14.068 22 13.602 21.848 13.235C21.6792 12.8274 21.3803 12.4871 20.998 12.267L19.25 12H4.75L3.002 12.267Z" fill="currentColor"></path>
    <path opacity="0.5" d="M10.998 4H12.998C16.768 4 18.654 4 19.826 5.172C20.849 6.194 20.979 7.76 20.996 10.649V12.266L19.25 12H4.75L3.002 12.267H3V10.65C3.017 7.761 3.147 6.195 4.17 5.173C5.34 4 7.225 4 10.997 4" fill="currentColor"></path>
    <path d="M19 10.5C19 9.314 18.998 8.517 18.919 7.922C18.843 7.354 18.713 7.111 18.554 6.951C18.396 6.791 18.155 6.658 17.594 6.581C17.005 6.502 16.217 6.5 15.044 6.5H12.913V10.5H19ZM11.087 10.5V6.5H8.957C7.783 6.5 6.995 6.502 6.407 6.582C5.845 6.658 5.604 6.79 5.446 6.951C5.287 7.111 5.156 7.354 5.081 7.922C5.001 8.517 5 9.314 5 10.5H11.087Z" fill="currentColor"></path>
  </symbol>

  <symbol id="solar:sofa-bold-duotone" viewBox="0 0 24 24" fill="none">
    <path d="M18.444 18H5.556C5.28473 17.9998 5.01434 17.9689 4.75 17.908V19C4.75 19.1989 4.67098 19.3897 4.53033 19.5303C4.38968 19.671 4.19891 19.75 4 19.75C3.80109 19.75 3.61032 19.671 3.46967 19.5303C3.32902 19.3897 3.25 19.1989 3.25 19V17.151C2.85781 16.8174 2.54287 16.4025 2.32702 15.9351C2.11118 15.4677 1.99959 14.9589 2 14.444V12C2 11.4696 2.21071 10.9609 2.58579 10.5858C2.96086 10.2107 3.46957 10 4 10C4.53043 10 5.03914 10.2107 5.41421 10.5858C5.78929 10.9609 6 11.4696 6 12V13.2C6 13.4122 6.08429 13.6157 6.23432 13.7657C6.38434 13.9157 6.58783 14 6.8 14H17.2C17.4122 14 17.6157 13.9157 17.7657 13.7657C17.9157 13.6157 18 13.4122 18 13.2V12C18 11.4696 18.2107 10.9609 18.5858 10.5858C18.9609 10.2107 19.4696 10 20 10C20.5304 10 21.0391 10.2107 21.4142 10.5858C21.7893 10.9609 22 11.4696 22 12V14.444C22.0004 14.9589 21.8888 15.4677 21.673 15.9351C21.4571 16.4025 21.1422 16.8174 20.75 17.151V19C20.75 19.1989 20.671 19.3897 20.5303 19.5303C20.3897 19.671 20.1989 19.75 20 19.75C19.8011 19.75 19.6103 19.671 19.4697 19.5303C19.329 19.3897 19.25 19.1989 19.25 19V17.908C18.9857 17.9689 18.7153 17.9998 18.444 18Z" fill="currentColor"></path>
    <path opacity="0.5" d="M4.007 9C4.015 8.672 4.034 8.434 4.077 8.22C4.23132 7.44401 4.6123 6.73121 5.17175 6.17175C5.73121 5.6123 6.44401 5.23132 7.22 5.077C7.606 5 8.07 5 9 5H15C15.93 5 16.394 5 16.78 5.077C17.556 5.23132 18.2688 5.6123 18.8282 6.17175C19.3877 6.73121 19.7687 7.44401 19.923 8.22C19.966 8.434 19.985 8.672 19.993 9H20V10C19.4696 10 18.9609 10.2107 18.5858 10.5858C18.2107 10.9609 18 11.4696 18 12V13.2C18 13.4122 17.9157 13.6157 17.7657 13.7657C17.6157 13.9157 17.4122 14 17.2 14H6.8C6.58783 14 6.38434 13.9157 6.23431 13.7657C6.08429 13.6157 6 13.4122 6 13.2V12C6 11.4696 5.78929 10.9609 5.41421 10.5858C5.03914 10.2107 4.53043 10 4 10V9H4.007Z" fill="currentColor"></path>
  </symbol>

  <symbol id="solar:calendar-linear" viewBox="0 0 24 24" fill="none">
    <path d="M2 12C2 8.229 2 6.343 3.172 5.172C4.344 4.001 6.229 4 10 4H14C17.771 4 19.657 4 20.828 5.172C21.999 6.344 22 8.229 22 12V14C22 17.771 22 19.657 20.828 20.828C19.656 21.999 17.771 22 14 22H10C6.229 22 4.343 22 3.172 20.828C2.001 19.656 2 17.771 2 14V12Z" stroke="currentColor" stroke-width="1.5"></path>
    <path d="M7 4V2.5M17 4V2.5M2.5 9H21.5" stroke="currentColor" stroke-width="1.5" stroke-linecap="round"></path>
    <path d="M18 17C18 17.2652 17.8946 17.5196 17.7071 17.7071C17.5196 17.8946 17.2652 18 17 18C16.7348 18 16.4804 17.8946 16.2929 17.7071C16.1054 17.5196 16 17.2652 16 17C16 16.7348 16.1054 16.4804 16.2929 16.2929C16.4804 16.1054 16.7348 16 17 16C17.2652 16 17.5196 16.1054 17.7071 16.2929C17.8946 16.4804 18 16.7348 18 17ZM18 13C18 13.2652 17.8946 13.5196 17.7071 13.7071C17.5196 13.8946 17.2652 14 17 14C16.7348 14 16.4804 13.8946 16.2929 13.7071C16.1054 13.5196 16 13.2652 16 13C16 12.7348 16.1054 12.4804 16.2929 12.2929C16.4804 12.1054 16.7348 12 17 12C17.2652 12 17.5196 12.1054 17.7071 12.2929C17.8946 12.4804 18 12.7348 18 13ZM13 17C13 17.2652 12.8946 17.5196 12.7071 17.7071C12.5196 17.8946 12.2652 18 12 18C11.7348 18 11.4804 17.8946 11.2929 17.7071C11.1054 17.5196 11 17.2652 11 17C11 16.7348 11.1054 16.4804 11.2929 16.2929C11.4804 16.1054 11.7348 16 12 16C12.2652 16 12.5196 16.1054 12.7071 16.2929C12.8946 16.4804 13 16.7348 13 17ZM13 13C13 13.2652 12.8946 13.5196 12.7071 13.7071C12.5196 13.8946 12.2652 14 12 14C11.7348 14 11.4804 13.8946 11.2929 13.7071C11.1054 13.5196 11 13.2652 11 13C11 12.7348 11.1054 12.4804 11.2929 12.2929C11.4804 12.1054 11.7348 12 12 12C12.2652 12 12.5196 12.1054 12.7071 12.2929C12.8946 12.4804 13 12.7348 13 13ZM8 17C8 17.2652 7.89464 17.5196 7.70711 17.7071C7.51957 17.8946 7.26522 18 7 18C6.73478 18 6.48043 17.8946 6.29289 17.7071C6.10536 17.5196 6 17.2652 6 17C6 16.7348 6.10536 16.4804 6.29289 16.2929C6.48043 16.1054 6.73478 16 7 16C7.26522 16 7.51957 16.1054 7.70711 16.2929C7.89464 16.4804 8 16.7348 8 17ZM8 13C8 13.2652 7.89464 13.5196 7.70711 13.7071C7.51957 13.8946 7.26522 14 7 14C6.73478 14 6.48043 13.8946 6.29289 13.7071C6.10536 13.5196 6 13.2652 6 13C6 12.7348 6.10536 12.4804 6.29289 12.2929C6.48043 12.1054 6.73478 12 7 12C7.26522 12 7.51957 12.1054 7.70711 12.2929C7.89464 12.4804 8 12.7348 8 13Z" fill="currentColor"></path>
  </symbol>

  <symbol id="solar:hamburger-menu-broken" viewBox="0 0 24 24" fill="none">
    <path d="M4 7H7M20 7H11M20 17H17M4 17H13M4 12H20" stroke="currentColor" stroke-width="1.5" stroke-linecap="round"></path>
  </symbol>

  <symbol id="solar:hamburger-menu-linear" viewBox="0 0 24 24" fill="none">
    <path d="M20 7H4M20 12H4M20 17H4" stroke="currentColor" stroke-width="1.5" stroke-linecap="round"></path>
  </symbol>

  <symbol id="solar:hamburger-menu-outline" viewBox="0 0 24 24" fill="none">
    <path fill-rule="evenodd" clip-rule="evenodd" d="M20.75 7C20.75 7.19891 20.671 7.38968 20.5303 7.53033C20.3897 7.67098 20.1989 7.75 20 7.75H4C3.80109 7.75 3.61032 7.67098 3.46967 7.53033C3.32902 7.38968 3.25 7.19891 3.25 7C3.25 6.80109 3.32902 6.61032 3.46967 6.46967C3.61032 6.32902 3.80109 6.25 4 6.25H20C20.1989 6.25 20.3897 6.32902 20.5303 6.46967C20.671 6.61032 20.75 6.80109 20.75 7ZM20.75 12C20.75 12.1989 20.671 12.3897 20.5303 12.5303C20.3897 12.671 20.1989 12.75 20 12.75H4C3.80109 12.75 3.61032 12.671 3.46967 12.5303C3.32902 12.3897 3.25 12.1989 3.25 12C3.25 11.8011 3.32902 11.6103 3.46967 11.4697C3.61032 11.329 3.80109 11.25 4 11.25H20C20.1989 11.25 20.3897 11.329 20.5303 11.4697C20.671 11.6103 20.75 11.8011 20.75 12ZM20.75 17C20.75 17.1989 20.671 17.3897 20.5303 17.5303C20.3897 17.671 20.1989 17.75 20 17.75H4C3.80109 17.75 3.61032 17.671 3.46967 17.5303C3.32902 17.3897 3.25 17.1989 3.25 17C3.25 16.8011 3.32902 16.6103 3.46967 16.4697C3.61032 16.329 3.80109 16.25 4 16.25H20C20.1989 16.25 20.3897 16.329 20.5303 16.4697C20.671 16.6103 20.75 16.8011 20.75 17Z" fill="currentColor"></path>
  </symbol>

  <symbol id="quote" viewBox="0 0 24 24" fill="none">
    <path d="M17.9998 18C18.3976 18 18.7791 17.842 19.0604 17.5607C19.3417 17.2794 19.4998 16.8978 19.4998 16.5V12.837C19.4998 12.4392 19.3417 12.0576 19.0604 11.7763C18.7791 11.495 18.3976 11.337 17.9998 11.337H15.9178C15.9178 10.81 15.9488 10.283 16.0108 9.756C16.1038 9.198 16.2588 8.702 16.4758 8.268C16.6928 7.834 16.9723 7.4925 17.3143 7.2435C17.6543 6.9645 18.0883 6.825 18.6163 6.825V4.5C17.7483 4.5 16.9883 4.686 16.3363 5.058C15.6888 5.42531 15.1325 5.93393 14.7088 6.546C14.2822 7.21972 13.9681 7.95838 13.7788 8.733C13.5874 9.58762 13.4938 10.4612 13.4998 11.337V16.5C13.4998 16.8978 13.6578 17.2794 13.9391 17.5607C14.2204 17.842 14.602 18 14.9998 18H17.9998ZM8.99979 18C9.39761 18 9.77914 17.842 10.0604 17.5607C10.3417 17.2794 10.4998 16.8978 10.4998 16.5V12.837C10.4998 12.4392 10.3417 12.0576 10.0604 11.7763C9.77914 11.495 9.39761 11.337 8.99979 11.337H6.91779C6.91779 10.81 6.94878 10.283 7.01078 9.756C7.10478 9.198 7.25979 8.702 7.47579 8.268C7.69279 7.834 7.97229 7.4925 8.31429 7.2435C8.65429 6.9645 9.08828 6.825 9.61628 6.825V4.5C8.74828 4.5 7.98828 4.686 7.33628 5.058C6.6888 5.42531 6.1325 5.93393 5.70879 6.546C5.2822 7.21972 4.9681 7.95838 4.77879 8.733C4.58736 9.58762 4.49376 10.4612 4.49979 11.337V16.5C4.49979 16.8978 4.65782 17.2794 4.93912 17.5607C5.22043 17.842 5.60196 18 5.99979 18H8.99979Z" fill="currentColor"></path>
  </symbol>

  <symbol id="solar:chat-round-line-bold-duotone" viewBox="0 0 24 24" fill="none">
    <path opacity="0.5" d="M12 22C17.523 22 22 17.523 22 12C22 6.477 17.523 2 12 2C6.477 2 2 6.477 2 12C2 13.6 2.376 15.112 3.043 16.453C3.221 16.809 3.28 17.216 3.177 17.601L2.582 19.827C2.52307 20.0473 2.52312 20.2792 2.58216 20.4995C2.64119 20.7197 2.75712 20.9206 2.91831 21.0819C3.07951 21.2432 3.2803 21.3593 3.50053 21.4184C3.72075 21.4776 3.95267 21.4778 4.173 21.419L6.399 20.823C6.78538 20.7254 7.19414 20.7727 7.548 20.956C8.93095 21.6446 10.4551 22.002 12 22Z" fill="currentColor"></path>
    <path d="M7.825 12.85C7.6062 12.85 7.39635 12.9369 7.24164 13.0916C7.08692 13.2464 7 13.4562 7 13.675C7 13.8938 7.08692 14.1036 7.24164 14.2584C7.39635 14.4131 7.6062 14.5 7.825 14.5H13.875C14.0938 14.5 14.3036 14.4131 14.4584 14.2584C14.6131 14.1036 14.7 13.8938 14.7 13.675C14.7 13.4562 14.6131 13.2464 14.4584 13.0916C14.3036 12.9369 14.0938 12.85 13.875 12.85H7.825ZM7.825 9C7.6062 9 7.39635 9.08692 7.24164 9.24164C7.08692 9.39635 7 9.6062 7 9.825C7 10.0438 7.08692 10.2536 7.24164 10.4084C7.39635 10.5631 7.6062 10.65 7.825 10.65H16.625C16.8438 10.65 17.0536 10.5631 17.2084 10.4084C17.3631 10.2536 17.45 10.0438 17.45 9.825C17.45 9.6062 17.3631 9.39635 17.2084 9.24164C17.0536 9.08692 16.8438 9 16.625 9H7.825Z" fill="currentColor"></path>
  </symbol>

  <symbol id="solar:chat-round-line-linear" viewBox="0 0 24 24" fill="none">
    <path d="M12 22C17.523 22 22 17.523 22 12C22 6.477 17.523 2 12 2C6.477 2 2 6.477 2 12C2 13.6 2.376 15.112 3.043 16.453C3.221 16.809 3.28 17.216 3.177 17.601L2.582 19.827C2.52307 20.0473 2.52312 20.2792 2.58216 20.4995C2.64119 20.7197 2.75712 20.9206 2.91831 21.0819C3.07951 21.2432 3.2803 21.3593 3.50053 21.4184C3.72075 21.4776 3.95267 21.4778 4.173 21.419L6.399 20.823C6.78538 20.7254 7.19414 20.7727 7.548 20.956C8.93095 21.6446 10.4551 22.002 12 22Z" stroke="currentColor" stroke-width="1.5"></path>
    <path d="M8 10.5H16M8 14H13.5" stroke="currentColor" stroke-width="1.5" stroke-linecap="round"></path>
  </symbol>

  <symbol id="solar:chat-round-line-bold" viewBox="0 0 24 24" fill="none">
    <path fill-rule="evenodd" clip-rule="evenodd" d="M12 22C17.523 22 22 17.523 22 12C22 6.477 17.523 2 12 2C6.477 2 2 6.477 2 12C2 13.6 2.376 15.112 3.043 16.453C3.221 16.809 3.28 17.216 3.177 17.601L2.582 19.827C2.52307 20.0473 2.52312 20.2792 2.58216 20.4995C2.64119 20.7197 2.75712 20.9206 2.91831 21.0819C3.07951 21.2432 3.2803 21.3593 3.50053 21.4184C3.72075 21.4776 3.95267 21.4778 4.173 21.419L6.399 20.823C6.78538 20.7254 7.19414 20.7727 7.548 20.956C8.93095 21.6446 10.4551 22.002 12 22ZM8 13.25C7.80109 13.25 7.61032 13.329 7.46967 13.4697C7.32902 13.6103 7.25 13.8011 7.25 14C7.25 14.1989 7.32902 14.3897 7.46967 14.5303C7.61032 14.671 7.80109 14.75 8 14.75H13.5C13.6989 14.75 13.8897 14.671 14.0303 14.5303C14.171 14.3897 14.25 14.1989 14.25 14C14.25 13.8011 14.171 13.6103 14.0303 13.4697C13.8897 13.329 13.6989 13.25 13.5 13.25H8ZM7.25 10.5C7.25 10.3011 7.32902 10.1103 7.46967 9.96967C7.61032 9.82902 7.80109 9.75 8 9.75H16C16.1989 9.75 16.3897 9.82902 16.5303 9.96967C16.671 10.1103 16.75 10.3011 16.75 10.5C16.75 10.6989 16.671 10.8897 16.5303 11.0303C16.3897 11.171 16.1989 11.25 16 11.25H8C7.80109 11.25 7.61032 11.171 7.46967 11.0303C7.32902 10.8897 7.25 10.6989 7.25 10.5Z" fill="currentColor"></path>
  </symbol>

  <symbol id="solar:add-circle-outline" viewBox="0 0 24 24" fill="none">
    <path d="M12.75 9C12.75 8.80109 12.671 8.61032 12.5303 8.46967C12.3897 8.32902 12.1989 8.25 12 8.25C11.8011 8.25 11.6103 8.32902 11.4697 8.46967C11.329 8.61032 11.25 8.80109 11.25 9V11.25H9C8.80109 11.25 8.61032 11.329 8.46967 11.4697C8.32902 11.6103 8.25 11.8011 8.25 12C8.25 12.1989 8.32902 12.3897 8.46967 12.5303C8.61032 12.671 8.80109 12.75 9 12.75H11.25V15C11.25 15.1989 11.329 15.3897 11.4697 15.5303C11.6103 15.671 11.8011 15.75 12 15.75C12.1989 15.75 12.3897 15.671 12.5303 15.5303C12.671 15.3897 12.75 15.1989 12.75 15V12.75H15C15.1989 12.75 15.3897 12.671 15.5303 12.5303C15.671 12.3897 15.75 12.1989 15.75 12C15.75 11.8011 15.671 11.6103 15.5303 11.4697C15.3897 11.329 15.1989 11.25 15 11.25H12.75V9Z" fill="currentColor"></path>
    <path fill-rule="evenodd" clip-rule="evenodd" d="M12 1.25C6.063 1.25 1.25 6.063 1.25 12C1.25 17.937 6.063 22.75 12 22.75C17.937 22.75 22.75 17.937 22.75 12C22.75 6.063 17.937 1.25 12 1.25ZM2.75 12C2.75 9.54675 3.72455 7.19397 5.45926 5.45926C7.19397 3.72455 9.54675 2.75 12 2.75C14.4533 2.75 16.806 3.72455 18.5407 5.45926C20.2754 7.19397 21.25 9.54675 21.25 12C21.25 14.4533 20.2754 16.806 18.5407 18.5407C16.806 20.2754 14.4533 21.25 12 21.25C9.54675 21.25 7.19397 20.2754 5.45926 18.5407C3.72455 16.806 2.75 14.4533 2.75 12Z" fill="currentColor"></path>
  </symbol>

  <symbol id="solar:check-circle-outline" viewBox="0 0 24 24" fill="none">
    <path d="M16.0298 10.0299C16.1035 9.96125 16.1626 9.87845 16.2036 9.78645C16.2446 9.69445 16.2667 9.59513 16.2684 9.49443C16.2702 9.39373 16.2517 9.2937 16.214 9.20031C16.1762 9.10692 16.1201 9.02209 16.0489 8.95087C15.9777 8.87965 15.8928 8.82351 15.7994 8.78579C15.7061 8.74807 15.606 8.72954 15.5053 8.73132C15.4046 8.73309 15.3053 8.75514 15.2133 8.79613C15.1213 8.83712 15.0385 8.89622 14.9698 8.96991L10.4998 13.4399L9.02985 11.9699C8.88767 11.8374 8.69963 11.7653 8.50532 11.7687C8.31102 11.7722 8.12564 11.8509 7.98822 11.9883C7.85081 12.1257 7.7721 12.3111 7.76867 12.5054C7.76524 12.6997 7.83737 12.8877 7.96985 13.0299L9.96985 15.0299C10.1105 15.1704 10.3011 15.2492 10.4998 15.2492C10.6986 15.2492 10.8892 15.1704 11.0298 15.0299L16.0298 10.0299Z" fill="currentColor"></path>
    <path fill-rule="evenodd" clip-rule="evenodd" d="M12 1.25C6.063 1.25 1.25 6.063 1.25 12C1.25 17.937 6.063 22.75 12 22.75C17.937 22.75 22.75 17.937 22.75 12C22.75 6.063 17.937 1.25 12 1.25ZM2.75 12C2.75 9.54675 3.72455 7.19397 5.45926 5.45926C7.19397 3.72455 9.54675 2.75 12 2.75C14.4533 2.75 16.806 3.72455 18.5407 5.45926C20.2754 7.19397 21.25 9.54675 21.25 12C21.25 14.4533 20.2754 16.806 18.5407 18.5407C16.806 20.2754 14.4533 21.25 12 21.25C9.54675 21.25 7.19397 20.2754 5.45926 18.5407C3.72455 16.806 2.75 14.4533 2.75 12Z" fill="currentColor"></path>
  </symbol>
</svg>